<?xml version="1.0" encoding="UTF-8"?> <svg xmlns="http://www.w3.org/2000/svg" width="178" height="178" viewBox="0 0 178 178" fill="none"> <g opacity="0.5"> <path d="M104.958 5.37021L101.022 13.3045L99.7737 13.1314L98.4254 6.172L95.2332 12.5013L93.9614 12.3248L92.3346 3.61861L93.5589 3.78849L94.8669 10.8634L98.1469 4.42514L99.2404 4.57688L100.591 11.6941L103.828 5.21352L104.958 5.37021Z" fill="#BDBDBD"></path> <path d="M117.85 9.09322L115.179 17.0573L114.041 16.6757L115.232 13.126L110.658 11.5921L109.468 15.1418L108.33 14.7603L111.001 6.79623L112.139 7.17779L110.99 10.6023L115.564 12.1362L116.712 8.71166L117.85 9.09322Z" fill="#BDBDBD"></path> <path d="M123.034 20.6353C122.283 20.2405 121.693 19.7219 121.262 19.0796C120.836 18.4303 120.602 17.724 120.56 16.961C120.526 16.2016 120.697 15.4644 121.073 14.7493C121.449 14.0343 121.96 13.4759 122.605 13.0741C123.257 12.6761 123.97 12.4725 124.743 12.4635C125.52 12.4473 126.284 12.6367 127.034 13.0315C127.778 13.4226 128.363 13.9429 128.789 14.5923C129.22 15.2346 129.452 15.9354 129.487 16.6947C129.525 17.447 129.354 18.1842 128.974 18.9064C128.594 19.6285 128.081 20.1905 127.436 20.5922C126.795 20.9869 126.085 21.1923 125.309 21.2084C124.535 21.2175 123.777 21.0265 123.034 20.6353ZM123.531 19.6902C124.076 19.977 124.63 20.1101 125.192 20.0895C125.761 20.0727 126.284 19.9135 126.759 19.612C127.244 19.3072 127.629 18.8857 127.912 18.3476C128.195 17.8095 128.323 17.2575 128.295 16.6915C128.278 16.1222 128.116 15.5982 127.807 15.1194C127.506 14.6444 127.082 14.2635 126.537 13.9767C125.992 13.6899 125.431 13.553 124.855 13.5662C124.285 13.583 123.758 13.7439 123.272 14.0487C122.797 14.3502 122.418 14.77 122.135 15.3081C121.852 15.8462 121.719 16.3999 121.735 16.9692C121.763 17.5352 121.931 18.0575 122.24 18.5362C122.555 19.0187 122.986 19.4034 123.531 19.6902Z" fill="#BDBDBD"></path> <path d="M133.657 27.1289C132.978 26.6201 132.478 26.0145 132.154 25.3121C131.836 24.6033 131.717 23.8689 131.797 23.1089C131.883 22.3537 132.169 21.6529 132.654 21.0065C133.138 20.3601 133.731 19.8897 134.432 19.5953C135.139 19.3057 135.875 19.2177 136.64 19.3313C137.41 19.4385 138.134 19.7465 138.812 20.2553C139.484 20.7593 139.979 21.3657 140.298 22.0745C140.621 22.7769 140.739 23.5057 140.653 24.2609C140.571 25.0097 140.286 25.7105 139.796 26.3633C139.306 27.0161 138.711 27.4897 138.01 27.7841C137.314 28.0721 136.582 28.1625 135.812 28.0553C135.047 27.9417 134.329 27.6329 133.657 27.1289ZM134.298 26.2745C134.79 26.6441 135.316 26.8633 135.874 26.9321C136.439 27.0057 136.98 26.9313 137.497 26.7089C138.025 26.4849 138.471 26.1297 138.836 25.6433C139.201 25.1569 139.414 24.6321 139.477 24.0689C139.55 23.5041 139.473 22.9609 139.244 22.4393C139.022 21.9225 138.664 21.4793 138.171 21.1097C137.678 20.7401 137.146 20.5161 136.575 20.4377C136.01 20.3641 135.464 20.4393 134.936 20.6633C134.419 20.8857 133.978 21.2401 133.614 21.7265C133.249 22.2129 133.03 22.7385 132.956 23.3033C132.894 23.8665 132.977 24.4089 133.206 24.9305C133.441 25.4569 133.805 25.9049 134.298 26.2745Z" fill="#BDBDBD"></path> <path d="M142.117 34.3407C141.671 33.8928 141.307 33.3913 141.026 32.8363C140.755 32.2813 140.612 31.7747 140.596 31.3165L141.573 30.9708C141.595 31.4008 141.715 31.8564 141.935 32.3378C142.166 32.8191 142.467 33.2469 142.84 33.6211C143.331 34.1144 143.78 34.401 144.187 34.4812C144.6 34.5556 144.945 34.4546 145.223 34.178C145.427 33.9749 145.524 33.7432 145.513 33.4829C145.514 33.2227 145.449 32.9595 145.32 32.6933C145.196 32.4328 144.999 32.0817 144.728 31.6398C144.39 31.0847 144.136 30.6146 143.968 30.2295C143.804 29.8502 143.735 29.4512 143.758 29.0326C143.793 28.6141 144 28.2158 144.38 27.8376C144.698 27.5216 145.066 27.3187 145.485 27.2292C145.909 27.1453 146.367 27.1972 146.859 27.385C147.351 27.5728 147.848 27.919 148.35 28.4236C148.7 28.7751 148.999 29.1661 149.247 29.5966C149.495 30.0271 149.655 30.4489 149.728 30.862L148.768 31.2587C148.678 30.8512 148.532 30.4662 148.329 30.1037C148.132 29.7355 147.898 29.4154 147.627 29.1432C147.147 28.6613 146.698 28.3859 146.28 28.3171C145.867 28.2539 145.522 28.3606 145.244 28.6372C145.04 28.8404 144.94 29.0749 144.945 29.3408C144.956 29.601 145.023 29.8671 145.147 30.1389C145.282 30.4107 145.482 30.7591 145.747 31.1839C146.085 31.7391 146.336 32.2063 146.499 32.5857C146.663 32.9651 146.73 33.3612 146.7 33.7741C146.677 34.1927 146.478 34.5882 146.104 34.9607C145.792 35.2711 145.421 35.4711 144.991 35.5606C144.566 35.6445 144.105 35.5897 143.608 35.3963C143.116 35.1972 142.619 34.8453 142.117 34.3407Z" fill="#BDBDBD"></path> <path d="M157.984 39.8793L151.272 44.9298L150.55 43.971L153.542 41.7198L150.642 37.8652L147.65 40.1163L146.928 39.1574L153.641 34.1069L154.362 35.0657L151.476 37.2375L154.376 41.0921L157.262 38.9204L157.984 39.8793Z" fill="#BDBDBD"></path> <path d="M172.883 77.1389L164.098 76.0175L163.853 74.7815L169.987 71.2292L162.961 70.285L162.712 69.0255L170.406 64.6381L170.646 65.8505L164.389 69.4026L171.546 70.3941L171.761 71.477L165.478 75.0833L172.662 76.0207L172.883 77.1389Z" fill="#BDBDBD"></path> <path d="M173.615 90.4717L165.216 90.6081L165.197 89.4082L168.94 89.3475L168.862 84.5241L165.119 84.5849L165.099 83.385L173.498 83.2487L173.518 84.4485L169.906 84.5072L169.984 89.3305L173.596 89.2719L173.615 90.4717Z" fill="#BDBDBD"></path> <path d="M164.426 99.2014C164.55 98.3625 164.844 97.6335 165.307 97.0145C165.778 96.3966 166.367 95.9416 167.073 95.6495C167.778 95.3654 168.53 95.2822 169.33 95.4001C170.129 95.518 170.825 95.8148 171.418 96.2904C172.01 96.7739 172.438 97.3789 172.703 98.1053C172.976 98.8329 173.05 99.6161 172.926 100.455C172.804 101.286 172.507 102.01 172.036 102.628C171.573 103.247 170.988 103.699 170.283 103.983C169.586 104.268 168.834 104.352 168.027 104.233C167.22 104.114 166.519 103.816 165.927 103.341C165.342 102.866 164.913 102.265 164.64 101.538C164.375 100.811 164.304 100.032 164.426 99.2014ZM165.483 99.3572C165.393 99.9666 165.451 100.533 165.657 101.057C165.862 101.588 166.185 102.028 166.627 102.376C167.075 102.734 167.6 102.957 168.202 103.045C168.803 103.134 169.367 103.072 169.891 102.858C170.423 102.653 170.863 102.326 171.213 101.876C171.561 101.434 171.78 100.909 171.87 100.299C171.96 99.6898 171.903 99.1154 171.7 98.5759C171.495 98.0444 171.168 97.5999 170.72 97.2427C170.278 96.8945 169.756 96.676 169.154 96.5873C168.553 96.4986 167.986 96.5565 167.455 96.7612C166.93 96.9749 166.493 97.3066 166.144 97.7565C165.793 98.2142 165.573 98.7478 165.483 99.3572Z" fill="#BDBDBD"></path> <path d="M161.757 111.378C162.02 110.573 162.432 109.904 162.992 109.372C163.56 108.843 164.217 108.493 164.961 108.324C165.704 108.163 166.458 108.208 167.226 108.458C167.994 108.708 168.63 109.118 169.134 109.686C169.635 110.262 169.956 110.93 170.094 111.69C170.241 112.452 170.183 113.236 169.92 114.042C169.659 114.84 169.245 115.504 168.677 116.033C168.117 116.565 167.465 116.912 166.723 117.073C165.988 117.237 165.234 117.193 164.458 116.94C163.683 116.687 163.043 116.276 162.539 115.708C162.043 115.142 161.721 114.478 161.575 113.716C161.436 112.955 161.497 112.176 161.757 111.378ZM162.772 111.71C162.581 112.295 162.543 112.863 162.658 113.413C162.77 113.971 163.014 114.459 163.391 114.876C163.773 115.303 164.253 115.611 164.83 115.8C165.408 115.988 165.973 116.021 166.526 115.899C167.084 115.787 167.573 115.538 167.993 115.154C168.41 114.777 168.714 114.296 168.905 113.711C169.096 113.126 169.137 112.55 169.027 111.985C168.915 111.427 168.668 110.934 168.286 110.507C167.909 110.089 167.432 109.786 166.854 109.598C166.276 109.41 165.709 109.371 165.151 109.484C164.598 109.606 164.111 109.859 163.692 110.244C163.269 110.636 162.963 111.124 162.772 111.71Z" fill="#BDBDBD"></path> <path d="M157.789 121.75C158.065 121.182 158.419 120.673 158.85 120.225C159.285 119.787 159.717 119.485 160.144 119.319L160.792 120.128C160.393 120.29 160.002 120.553 159.62 120.919C159.242 121.295 158.937 121.721 158.706 122.196C158.402 122.822 158.279 123.34 158.337 123.751C158.403 124.165 158.612 124.458 158.964 124.63C159.223 124.755 159.474 124.771 159.716 124.675C159.962 124.59 160.189 124.442 160.398 124.232C160.603 124.03 160.87 123.728 161.198 123.327C161.611 122.825 161.972 122.431 162.28 122.145C162.584 121.866 162.938 121.669 163.341 121.553C163.748 121.449 164.192 121.513 164.674 121.748C165.077 121.943 165.39 122.224 165.612 122.59C165.831 122.964 165.933 123.413 165.917 123.939C165.902 124.466 165.738 125.049 165.427 125.689C165.21 126.135 164.939 126.546 164.615 126.922C164.29 127.298 163.944 127.588 163.578 127.792L162.887 127.017C163.243 126.798 163.558 126.533 163.834 126.222C164.117 125.915 164.342 125.589 164.51 125.243C164.807 124.632 164.919 124.117 164.847 123.699C164.77 123.289 164.556 122.998 164.203 122.826C163.944 122.7 163.69 122.684 163.441 122.776C163.199 122.872 162.97 123.023 162.754 123.229C162.541 123.446 162.278 123.75 161.964 124.14C161.551 124.642 161.192 125.032 160.888 125.311C160.583 125.59 160.231 125.783 159.832 125.892C159.429 126.007 158.99 125.95 158.515 125.719C158.119 125.526 157.808 125.242 157.582 124.865C157.363 124.492 157.263 124.039 157.282 123.505C157.309 122.976 157.477 122.39 157.789 121.75Z" fill="#BDBDBD"></path> <path d="M157.789 138.546L150.814 133.865L151.483 132.868L154.592 134.955L157.28 130.95L154.172 128.863L154.84 127.867L161.815 132.548L161.146 133.544L158.147 131.531L155.459 135.537L158.458 137.55L157.789 138.546Z" fill="#BDBDBD"></path> <path d="M127.54 164.893L125.685 156.232L126.77 155.591L132.155 160.201L130.717 153.26L131.823 152.607L138.513 158.411L137.448 159.04L132.023 154.314L133.46 161.396L132.51 161.957L127.025 157.225L128.521 164.313L127.54 164.893Z" fill="#BDBDBD"></path> <path d="M115.119 170.008L112.256 162.111L113.384 161.702L114.66 165.221L119.195 163.577L117.919 160.057L119.047 159.648L121.91 167.545L120.782 167.954L119.551 164.558L115.016 166.203L116.247 169.599L115.119 170.008Z" fill="#BDBDBD"></path> <path d="M103.9 164.182C104.731 164.021 105.515 164.056 106.251 164.288C106.989 164.527 107.612 164.931 108.121 165.499C108.622 166.069 108.949 166.75 109.103 167.542C109.256 168.334 109.207 169.088 108.956 169.803C108.696 170.521 108.268 171.124 107.672 171.614C107.077 172.112 106.364 172.441 105.533 172.602C104.709 172.762 103.929 172.722 103.191 172.483C102.455 172.251 101.836 171.851 101.335 171.281C100.836 170.719 100.508 170.038 100.353 169.238C100.198 168.438 100.247 167.681 100.498 166.965C100.751 166.257 101.176 165.654 101.771 165.156C102.367 164.667 103.077 164.342 103.9 164.182ZM104.103 165.229C103.499 165.346 102.985 165.588 102.56 165.955C102.127 166.324 101.82 166.774 101.638 167.305C101.45 167.846 101.414 168.414 101.529 169.01C101.645 169.606 101.89 170.116 102.265 170.539C102.634 170.972 103.088 171.279 103.627 171.459C104.158 171.64 104.726 171.673 105.33 171.556C105.933 171.439 106.455 171.195 106.896 170.825C107.329 170.456 107.64 170.002 107.828 169.461C108.009 168.929 108.042 168.366 107.927 167.77C107.811 167.174 107.569 166.66 107.201 166.227C106.826 165.803 106.368 165.501 105.829 165.321C105.282 165.143 104.707 165.112 104.103 165.229Z" fill="#BDBDBD"></path> <path d="M91.5487 165.693C92.3965 165.671 93.1649 165.836 93.854 166.186C94.5433 166.545 95.0922 167.047 95.5006 167.693C95.9011 168.339 96.1116 169.066 96.132 169.874C96.1525 170.682 95.9791 171.418 95.6118 172.084C95.2365 172.749 94.7136 173.275 94.0432 173.66C93.3729 174.053 92.6139 174.26 91.7662 174.282C90.9264 174.303 90.1619 174.134 89.4726 173.776C88.7835 173.425 88.2387 172.927 87.8383 172.281C87.438 171.642 87.2275 170.916 87.2069 170.1C87.1862 169.284 87.3595 168.543 87.7268 167.878C88.0943 167.22 88.6132 166.695 89.2834 166.302C89.9539 165.917 90.709 165.714 91.5487 165.693ZM91.5758 166.76C90.96 166.776 90.4117 166.93 89.9309 167.222C89.4422 167.514 89.064 167.908 88.7965 168.403C88.5211 168.906 88.3911 169.462 88.4065 170.069C88.4219 170.677 88.5797 171.221 88.88 171.702C89.1724 172.191 89.5701 172.569 90.073 172.836C90.568 173.104 91.1233 173.23 91.7391 173.214C92.3549 173.199 92.9112 173.044 93.408 172.752C93.8967 172.459 94.2788 172.061 94.5541 171.558C94.8217 171.063 94.9478 170.512 94.9324 169.904C94.917 169.296 94.7631 168.748 94.4706 168.259C94.1704 167.779 93.7688 167.405 93.2659 167.138C92.7549 166.87 92.1916 166.745 91.5758 166.76Z" fill="#BDBDBD"></path> <path d="M80.4309 165.334C81.0588 165.406 81.6558 165.572 82.2219 165.83C82.7792 166.096 83.2069 166.403 83.505 166.751L82.9568 167.63C82.6719 167.307 82.2935 167.026 81.8219 166.787C81.3413 166.554 80.8388 166.408 80.3142 166.347C79.6228 166.268 79.0929 166.323 78.7247 166.514C78.3555 166.714 78.1484 167.008 78.1036 167.397C78.0706 167.683 78.1394 167.925 78.31 168.122C78.4718 168.325 78.6862 168.491 78.9534 168.618C79.2127 168.745 79.5857 168.897 80.0727 169.074C80.6832 169.297 81.1744 169.506 81.5464 169.702C81.9105 169.897 82.2138 170.166 82.4563 170.508C82.6899 170.857 82.776 171.297 82.7147 171.83C82.6634 172.275 82.502 172.663 82.2303 172.994C81.9507 173.324 81.5601 173.569 81.0585 173.729C80.557 173.889 79.9525 173.928 79.2452 173.846C78.7525 173.789 78.275 173.67 77.8128 173.488C77.3506 173.306 76.9623 173.076 76.6481 172.798L77.1513 171.89C77.4754 172.153 77.8297 172.362 78.2142 172.52C78.5979 172.684 78.9804 172.789 79.3619 172.833C80.0374 172.911 80.5603 172.846 80.9304 172.639C81.2925 172.431 81.4961 172.132 81.5409 171.743C81.5739 171.457 81.5055 171.212 81.3358 171.007C81.1652 170.81 80.9468 170.644 80.6805 170.508C80.4054 170.38 80.0318 170.232 79.5599 170.065C78.9494 169.842 78.4621 169.633 78.098 169.438C77.734 169.243 77.4347 168.975 77.2001 168.634C76.9577 168.292 76.8666 167.859 76.9271 167.334C76.9774 166.897 77.1428 166.509 77.4234 166.171C77.703 165.841 78.0975 165.597 78.6071 165.438C79.1156 165.287 79.7236 165.252 80.4309 165.334Z" fill="#BDBDBD"></path> <path d="M64.5724 170.896L66.6813 162.765L67.8429 163.066L66.9029 166.69L71.5724 167.901L72.5124 164.277L73.6739 164.579L71.5651 172.71L70.4035 172.408L71.3103 168.912L66.6408 167.701L65.734 171.197L64.5724 170.896Z" fill="#BDBDBD"></path> <path d="M26.5891 147.853L34.3885 143.655L35.3065 144.519L32.382 150.976L38.6465 147.658L39.582 148.538L35.8746 156.581L34.974 155.735L37.9982 149.206L31.5991 152.562L30.7947 151.806L33.8086 145.218L27.4198 148.633L26.5891 147.853Z" fill="#BDBDBD"></path> <path d="M18.2249 137.397L24.9982 132.429L25.7079 133.397L22.689 135.611L25.5422 139.501L28.5611 137.286L29.2708 138.254L22.4976 143.222L21.7878 142.254L24.7003 140.118L21.8472 136.228L18.9347 138.365L18.2249 137.397Z" fill="#BDBDBD"></path> <path d="M20.5947 125.013C20.9848 125.768 21.1725 126.533 21.1578 127.307C21.1359 128.085 20.9232 128.8 20.5197 129.45C20.1125 130.094 19.5494 130.602 18.8302 130.973C18.1111 131.345 17.3713 131.511 16.6108 131.471C15.8467 131.424 15.1444 131.182 14.5041 130.746C13.8567 130.314 13.3379 129.721 12.9478 128.966C12.5614 128.218 12.3792 127.455 12.401 126.677C12.4157 125.903 12.6267 125.194 13.0339 124.55C13.434 123.91 13.9971 123.403 14.7234 123.027C15.4496 122.652 16.193 122.484 16.9534 122.524C17.7068 122.568 18.4072 122.806 19.0546 123.238C19.695 123.674 20.2083 124.266 20.5947 125.013ZM19.6442 125.505C19.3608 124.957 18.9823 124.53 18.5086 124.224C18.0313 123.911 17.511 123.743 16.9479 123.718C16.374 123.69 15.8165 123.816 15.2754 124.095C14.7342 124.375 14.3128 124.755 14.0109 125.236C13.6983 125.713 13.5314 126.237 13.5104 126.807C13.4857 127.371 13.615 127.926 13.8984 128.475C14.1817 129.023 14.5639 129.457 15.045 129.777C15.5223 130.089 16.048 130.26 16.6219 130.288C17.185 130.312 17.7371 130.185 18.2782 129.905C18.8194 129.626 19.2462 129.247 19.5589 128.77C19.8607 128.289 20.0222 127.763 20.0432 127.193C20.0606 126.616 19.9276 126.053 19.6442 125.505Z" fill="#BDBDBD"></path> <path d="M15.7079 113.541C15.966 114.349 16.0233 115.132 15.8797 115.892C15.7285 116.654 15.4001 117.322 14.8946 117.895C14.3866 118.46 13.7477 118.866 12.9781 119.112C12.2084 119.358 11.4527 119.398 10.7109 119.232C9.96675 119.058 9.3159 118.703 8.7584 118.168C8.19327 117.634 7.78165 116.964 7.52355 116.156C7.26788 115.356 7.21564 114.575 7.36684 113.812C7.51041 113.053 7.83619 112.39 8.34419 111.825C8.84457 111.262 9.48341 110.856 10.2607 110.608C11.038 110.359 11.7975 110.318 12.5392 110.484C13.2734 110.653 13.923 111.004 14.4881 111.537C15.0456 112.073 15.4522 112.741 15.7079 113.541ZM14.6906 113.866C14.5031 113.279 14.2017 112.796 13.7865 112.416C13.3688 112.029 12.8849 111.776 12.3348 111.658C11.7747 111.535 11.2051 111.566 10.6259 111.751C10.0468 111.936 9.5686 112.24 9.19141 112.663C8.80417 113.08 8.55267 113.568 8.43692 114.126C8.31874 114.676 8.35339 115.244 8.54088 115.831C8.72837 116.418 9.03217 116.909 9.45228 117.303C9.86997 117.691 10.3589 117.946 10.919 118.069C11.4691 118.187 12.0337 118.154 12.6128 117.969C13.192 117.784 13.6752 117.483 14.0624 117.065C14.4396 116.642 14.6861 116.152 14.8018 115.594C14.9152 115.029 14.8781 114.453 14.6906 113.866Z" fill="#BDBDBD"></path> <path d="M12.9512 102.771C13.0562 103.394 13.0633 104.014 12.9724 104.63C12.8723 105.239 12.6963 105.735 12.4445 106.118L11.4477 105.836C11.6785 105.472 11.8434 105.031 11.9424 104.511C12.0321 103.985 12.0331 103.462 11.9453 102.941C11.8296 102.255 11.6288 101.761 11.3428 101.46C11.049 101.161 10.7088 101.044 10.3222 101.109C10.0383 101.157 9.82544 101.29 9.68381 101.509C9.53296 101.721 9.43348 101.973 9.38537 102.265C9.33592 102.549 9.29393 102.95 9.25939 103.467C9.21458 104.115 9.14982 104.645 9.0651 105.057C8.97906 105.461 8.80548 105.827 8.54438 106.155C8.27405 106.476 7.87462 106.682 7.34608 106.771C6.90431 106.845 6.48665 106.798 6.09309 106.629C5.6982 106.452 5.35435 106.145 5.06156 105.708C4.76876 105.27 4.56318 104.701 4.44481 103.999C4.36235 103.509 4.34433 103.018 4.39074 102.523C4.43716 102.028 4.5501 101.592 4.72957 101.212L5.74205 101.443C5.57969 101.828 5.47654 102.226 5.4326 102.639C5.38077 103.054 5.38677 103.45 5.45061 103.829C5.56367 104.5 5.77106 104.984 6.0728 105.282C6.37321 105.572 6.71669 105.684 7.10323 105.619C7.38722 105.571 7.60398 105.437 7.7535 105.217C7.89513 104.999 7.99394 104.743 8.04995 104.449C8.09673 104.15 8.13478 103.75 8.16409 103.25C8.2089 102.601 8.27433 102.075 8.36037 101.671C8.44642 101.267 8.62066 100.905 8.88309 100.585C9.1442 100.257 9.53508 100.049 10.0557 99.9615C10.4896 99.8884 10.9079 99.9396 11.3107 100.115C11.7056 100.292 12.0501 100.603 12.3442 101.048C12.6305 101.495 12.8328 102.069 12.9512 102.771Z" fill="#BDBDBD"></path> <path d="M3.73997 87.3136L12.1102 87.0638L12.1459 88.2595L8.41514 88.3709L8.55863 93.1778L12.2893 93.0664L12.325 94.2622L3.95485 94.512L3.91915 93.3163L7.51833 93.2088L7.37484 88.4019L3.77566 88.5094L3.73997 87.3136Z" fill="#BDBDBD"></path> <path d="M12.4618 50.1825L19.0029 56.154L18.4922 57.3059L11.4309 56.6825L16.6343 61.4965L16.1139 62.6703L7.29667 61.8328L7.79762 60.7029L14.9589 61.3969L9.67498 56.4684L10.1224 55.4591L17.3361 56.1239L11.9998 51.2246L12.4618 50.1825Z" fill="#BDBDBD"></path> <path d="M19.678 38.8196L26.566 43.6076L25.882 44.5916L22.8119 42.4576L20.0622 46.4132L23.1323 48.5473L22.4483 49.5313L15.5603 44.7433L16.2443 43.7593L19.2061 45.8182L21.9558 41.8625L18.994 39.8036L19.678 38.8196Z" fill="#BDBDBD"></path> <path d="M32.1006 37.0121C31.5155 37.6259 30.8552 38.0519 30.1196 38.2902C29.3783 38.5229 28.6349 38.5549 27.8896 38.386C27.1499 38.2113 26.4876 37.8452 25.9027 37.2876C25.3179 36.7301 24.9205 36.0861 24.7107 35.3555C24.5063 34.6191 24.5056 33.8779 24.7084 33.1318C24.9055 32.3801 25.2965 31.6974 25.8817 31.0836C26.4613 30.4756 27.1217 30.0553 27.8631 29.8225C28.5987 29.5842 29.3363 29.5524 30.0761 29.7271C30.8101 29.8963 31.4724 30.2624 32.063 30.8255C32.6537 31.3885 33.0539 32.0353 33.2638 32.7659C33.4678 33.491 33.4713 34.2293 33.2743 34.9809C33.0715 35.727 32.6802 36.4041 32.1006 37.0121ZM31.3276 36.2752C31.7527 35.8293 32.0322 35.3332 32.1663 34.7868C32.3058 34.2345 32.2956 33.6887 32.1356 33.1494C31.9753 32.5987 31.6751 32.1136 31.235 31.694C30.795 31.2745 30.2989 31.0006 29.747 30.8724C29.1948 30.7328 28.6462 30.7459 28.1013 30.9117C27.5619 31.0717 27.0797 31.3747 26.6547 31.8206C26.2297 32.2664 25.9446 32.7684 25.7995 33.3264C25.6599 33.8786 25.6703 34.43 25.8306 34.9807C25.9906 35.5201 26.2906 35.9996 26.7307 36.4191C27.1708 36.8386 27.6669 37.1181 28.2191 37.2577C28.7711 37.386 29.3195 37.3672 29.8644 37.2014C30.4148 37.0298 30.9026 36.7211 31.3276 36.2752Z" fill="#BDBDBD"></path> <path d="M41.3004 28.5749C40.622 29.0837 39.9004 29.3949 39.1356 29.5085C38.366 29.6157 37.6276 29.5245 36.9204 29.2349C36.2196 28.9405 35.6268 28.4701 35.142 27.8237C34.6572 27.1773 34.3716 26.4765 34.2852 25.7213C34.2052 24.9613 34.3268 24.2301 34.65 23.5277C34.9684 22.8189 35.4668 22.2101 36.1452 21.7013C36.8172 21.1973 37.538 20.8917 38.3076 20.7845C39.0724 20.6709 39.8052 20.7613 40.506 21.0557C41.202 21.3437 41.7948 21.8141 42.2844 22.4669C42.774 23.1197 43.062 23.8237 43.1484 24.5789C43.23 25.3277 43.1116 26.0565 42.7932 26.7653C42.47 27.4677 41.9724 28.0709 41.3004 28.5749ZM40.6596 27.7205C41.1524 27.3509 41.51 26.9077 41.7324 26.3909C41.9612 25.8693 42.0412 25.3293 41.9724 24.7709C41.9052 24.2013 41.6892 23.6733 41.3244 23.1869C40.9596 22.7005 40.5156 22.3485 39.9924 22.1309C39.4708 21.9021 38.9276 21.8245 38.3628 21.8981C37.8044 21.9669 37.2788 22.1861 36.786 22.5557C36.2932 22.9253 35.9292 23.3733 35.694 23.8997C35.4652 24.4213 35.3844 24.9669 35.4516 25.5365C35.5204 26.0949 35.7372 26.6173 36.102 27.1037C36.4668 27.5901 36.91 27.9477 37.4316 28.1765C37.9548 28.3941 38.4988 28.4661 39.0636 28.3925C39.6348 28.3141 40.1668 28.0901 40.6596 27.7205Z" fill="#BDBDBD"></path> <path d="M50.5363 22.5042C49.9865 22.8076 49.408 23.0178 48.8008 23.1349C48.1967 23.2413 47.6736 23.2393 47.2315 23.1292L47.1685 22.1017C47.5852 22.1987 48.0534 22.2082 48.5732 22.1302C49.0962 22.0414 49.5874 21.8703 50.0467 21.6168C50.6522 21.2827 51.049 20.9322 51.2369 20.5653C51.421 20.1913 51.4189 19.8339 51.2308 19.4928C51.0925 19.2423 50.8976 19.0865 50.6461 19.0255C50.3977 18.9538 50.1287 18.9433 49.839 18.9942C49.5563 19.0413 49.1669 19.1335 48.6708 19.2711C48.048 19.4422 47.5296 19.5557 47.1156 19.6116C46.7086 19.6637 46.3084 19.6212 45.915 19.4842C45.5248 19.3363 45.201 19.0293 44.9437 18.5629C44.7287 18.1732 44.6357 17.766 44.6647 17.3415C44.7007 16.9131 44.8757 16.4897 45.1896 16.0714C45.5035 15.6531 45.9702 15.273 46.5896 14.9313C47.0212 14.6932 47.4764 14.5146 47.9555 14.3956C48.4345 14.2765 48.8813 14.2389 49.2958 14.2825L49.412 15.3078C48.9983 15.2819 48.5905 15.3162 48.1888 15.4108C47.7832 15.4984 47.4133 15.6343 47.0792 15.8187C46.4876 16.1451 46.1017 16.4987 45.9215 16.8796C45.7482 17.2566 45.7556 17.6157 45.9438 17.9567C46.082 18.2073 46.2788 18.3665 46.5342 18.4344C46.7857 18.4954 47.0582 18.5039 47.3518 18.46C47.6484 18.4053 48.0359 18.3095 48.5142 18.1727C49.137 18.0016 49.6519 17.89 50.059 17.8379C50.466 17.7858 50.8627 17.8302 51.2491 17.9711C51.6425 18.1081 51.9659 18.4063 52.2193 18.8657C52.4305 19.2485 52.52 19.6576 52.4879 20.0929C52.4519 20.5213 52.2734 20.9466 51.9526 21.3688C51.6278 21.784 51.1558 22.1625 50.5363 22.5042Z" fill="#BDBDBD"></path> <path d="M60.1498 8.65574L63.1656 16.4957L62.0456 16.9265L60.7014 13.4321L56.199 15.1641L57.5432 18.6584L56.4232 19.0893L53.4074 11.2493L54.5274 10.8185L55.8242 14.1897L60.3266 12.4578L59.0298 9.08656L60.1498 8.65574Z" fill="#BDBDBD"></path> <path d="M78.5423 11.3998C79.2232 11.3998 79.7752 10.8478 79.7752 10.1669C79.7752 9.48597 79.2232 8.93396 78.5423 8.93396C77.8613 8.93396 77.3093 9.48597 77.3093 10.1669C77.3093 10.8478 77.8613 11.3998 78.5423 11.3998Z" fill="#BDBDBD"></path> <path d="M161.149 58.2517C161.83 58.2517 162.382 57.6997 162.382 57.0188C162.382 56.3378 161.83 55.7858 161.149 55.7858C160.469 55.7858 159.917 56.3378 159.917 57.0188C159.917 57.6997 160.469 58.2517 161.149 58.2517Z" fill="#BDBDBD"></path> <path d="M143.888 148.256C144.569 148.256 145.121 147.704 145.121 147.023C145.121 146.343 144.569 145.791 143.888 145.791C143.207 145.791 142.655 146.343 142.655 147.023C142.655 147.704 143.207 148.256 143.888 148.256Z" fill="#BDBDBD"></path> <path d="M48.9517 160.586C49.6326 160.586 50.1846 160.034 50.1846 159.353C50.1846 158.672 49.6326 158.12 48.9517 158.12C48.2708 158.12 47.7188 158.672 47.7188 159.353C47.7188 160.034 48.2708 160.586 48.9517 160.586Z" fill="#BDBDBD"></path> <path d="M8.233 76.4659C8.91394 76.4659 9.46594 75.9139 9.46594 75.2329C9.46594 74.552 8.91394 74 8.233 74C7.55207 74 7.00006 74.552 7.00006 75.2329C7.00006 75.9139 7.55207 76.4659 8.233 76.4659Z" fill="#BDBDBD"></path> </g> </svg> 