<?xml version="1.0" encoding="UTF-8"?> <svg xmlns="http://www.w3.org/2000/svg" width="11653" height="181" viewBox="0 0 11653 181" fill="none"> <mask id="path-1-outside-1" maskUnits="userSpaceOnUse" x="0" y="0" width="11653" height="181" fill="black"> <rect fill="white" width="11653" height="181"></rect> <path d="M290.157 5.86885L235.921 175.131H174.664L147.305 84.6967L118.492 175.131H57.2353L3 5.86885H61.8356L91.3745 102.107L122.608 5.86885H175.149L204.688 103.316L235.921 5.86885H290.157Z"></path> <path d="M469.91 5.86885V175.131H412.769V112.746H359.986V175.131H302.845V5.86885H359.986V65.8361H412.769V5.86885H469.91Z"></path> <path d="M586.3 179C568.06 179 551.677 175.212 537.149 167.635C522.622 160.059 511.242 149.581 503.01 136.201C494.778 122.66 490.662 107.426 490.662 90.5C490.662 73.5738 494.778 58.4208 503.01 45.041C511.242 31.5 522.622 20.9413 537.149 13.3648C551.677 5.78825 568.06 2 586.3 2C604.54 2 620.924 5.78825 635.451 13.3648C649.978 20.9413 661.358 31.5 669.59 45.041C677.822 58.4208 681.938 73.5738 681.938 90.5C681.938 107.426 677.822 122.66 669.59 136.201C661.358 149.581 649.978 160.059 635.451 167.635C620.924 175.212 604.54 179 586.3 179ZM586.3 132.816C593.402 132.816 599.778 131.123 605.428 127.738C611.239 124.191 615.839 119.275 619.229 112.988C622.618 106.54 624.313 99.0437 624.313 90.5C624.313 81.9563 622.618 74.541 619.229 68.2541C615.839 61.806 611.239 56.8894 605.428 53.5041C599.778 49.9577 593.402 48.1844 586.3 48.1844C579.198 48.1844 572.741 49.9577 566.93 53.5041C561.281 56.8894 556.761 61.806 553.372 68.2541C549.982 74.541 548.287 81.9563 548.287 90.5C548.287 99.0437 549.982 106.54 553.372 112.988C556.761 119.275 561.281 124.191 566.93 127.738C572.741 131.123 579.198 132.816 586.3 132.816Z"></path> <path d="M791.536 179C773.296 179 756.913 175.212 742.386 167.635C727.858 160.059 716.479 149.581 708.246 136.201C700.014 122.66 695.898 107.426 695.898 90.5C695.898 73.5738 700.014 58.4208 708.246 45.041C716.479 31.5 727.858 20.9413 742.386 13.3648C756.913 5.78825 773.296 2 791.536 2C809.776 2 826.16 5.78825 840.687 13.3648C855.214 20.9413 866.594 31.5 874.826 45.041C883.058 58.4208 887.175 73.5738 887.175 90.5C887.175 107.426 883.058 122.66 874.826 136.201C866.594 149.581 855.214 160.059 840.687 167.635C826.16 175.212 809.776 179 791.536 179ZM791.536 132.816C798.639 132.816 805.014 131.123 810.664 127.738C816.475 124.191 821.075 119.275 824.465 112.988C827.855 106.54 829.55 99.0437 829.55 90.5C829.55 81.9563 827.855 74.541 824.465 68.2541C821.075 61.806 816.475 56.8894 810.664 53.5041C805.014 49.9577 798.639 48.1844 791.536 48.1844C784.434 48.1844 777.978 49.9577 772.167 53.5041C766.517 56.8894 761.998 61.806 758.608 68.2541C755.218 74.541 753.523 81.9563 753.523 90.5C753.523 99.0437 755.218 106.54 758.608 112.988C761.998 119.275 766.517 124.191 772.167 127.738C777.978 131.123 784.434 132.816 791.536 132.816Z"></path> <path d="M971.108 179C957.065 179 943.344 177.469 929.947 174.406C916.711 171.182 905.815 166.91 897.26 161.59L915.662 120C923.732 124.675 932.772 128.463 942.779 131.365C952.787 134.105 962.391 135.475 971.592 135.475C979.501 135.475 985.151 134.75 988.54 133.299C991.93 131.687 993.625 129.35 993.625 126.287C993.625 122.74 991.365 120.081 986.846 118.307C982.487 116.534 975.224 114.6 965.055 112.504C951.98 109.764 941.085 106.862 932.368 103.799C923.652 100.575 916.065 95.4167 909.609 88.3238C903.152 81.0697 899.924 71.3169 899.924 59.0656C899.924 48.4262 902.91 38.7541 908.882 30.0492C914.855 21.3443 923.732 14.4932 935.516 9.49589C947.46 4.49863 961.907 2 978.856 2C990.477 2 1001.86 3.28962 1012.99 5.86885C1024.29 8.28688 1034.22 11.9139 1042.78 16.75L1025.59 58.0984C1008.96 49.7159 993.221 45.5246 978.371 45.5246C963.683 45.5246 956.338 49.071 956.338 56.1639C956.338 59.5492 958.517 62.1284 962.875 63.9016C967.234 65.5137 974.417 67.2869 984.424 69.2213C997.338 71.6394 1008.23 74.4604 1017.11 77.6844C1025.99 80.7473 1033.66 85.8251 1040.11 92.918C1046.73 100.011 1050.04 109.683 1050.04 121.934C1050.04 132.574 1047.05 142.246 1041.08 150.951C1035.11 159.495 1026.15 166.346 1014.21 171.504C1002.42 176.501 988.056 179 971.108 179Z"></path> <path d="M1234.11 5.86885V175.131H1176.97V112.746H1124.18V175.131H1067.04V5.86885H1124.18V65.8361H1176.97V5.86885H1234.11Z"></path> <path d="M1357.23 177.549C1348.03 177.549 1340.36 174.648 1334.23 168.844C1328.26 162.88 1325.27 155.303 1325.27 146.115C1325.27 136.926 1328.26 129.511 1334.23 123.869C1340.36 118.066 1348.03 115.164 1357.23 115.164C1366.43 115.164 1374.02 118.066 1379.99 123.869C1386.12 129.511 1389.19 136.926 1389.19 146.115C1389.19 155.303 1386.12 162.88 1379.99 168.844C1374.02 174.648 1366.43 177.549 1357.23 177.549Z"></path> <path d="M1756.13 5.86885L1701.89 175.131H1640.64L1613.28 84.6967L1584.46 175.131H1523.21L1468.97 5.86885H1527.81L1557.35 102.107L1588.58 5.86885H1641.12L1670.66 103.316L1701.89 5.86885H1756.13Z"></path> <path d="M1935.88 5.86885V175.131H1878.74V112.746H1825.96V175.131H1768.82V5.86885H1825.96V65.8361H1878.74V5.86885H1935.88Z"></path> <path d="M2052.27 179C2034.03 179 2017.65 175.212 2003.12 167.635C1988.59 160.059 1977.22 149.581 1968.98 136.201C1960.75 122.66 1956.63 107.426 1956.63 90.5C1956.63 73.5738 1960.75 58.4208 1968.98 45.041C1977.22 31.5 1988.59 20.9413 2003.12 13.3648C2017.65 5.78825 2034.03 2 2052.27 2C2070.51 2 2086.9 5.78825 2101.42 13.3648C2115.95 20.9413 2127.33 31.5 2135.56 45.041C2143.8 58.4208 2147.91 73.5738 2147.91 90.5C2147.91 107.426 2143.8 122.66 2135.56 136.201C2127.33 149.581 2115.95 160.059 2101.42 167.635C2086.9 175.212 2070.51 179 2052.27 179ZM2052.27 132.816C2059.38 132.816 2065.75 131.123 2071.4 127.738C2077.21 124.191 2081.81 119.275 2085.2 112.988C2088.59 106.54 2090.29 99.0437 2090.29 90.5C2090.29 81.9563 2088.59 74.541 2085.2 68.2541C2081.81 61.806 2077.21 56.8894 2071.4 53.5041C2065.75 49.9577 2059.38 48.1844 2052.27 48.1844C2045.17 48.1844 2038.71 49.9577 2032.9 53.5041C2027.25 56.8894 2022.73 61.806 2019.34 68.2541C2015.95 74.541 2014.26 81.9563 2014.26 90.5C2014.26 99.0437 2015.95 106.54 2019.34 112.988C2022.73 119.275 2027.25 124.191 2032.9 127.738C2038.71 131.123 2045.17 132.816 2052.27 132.816Z"></path> <path d="M2257.51 179C2239.27 179 2222.89 175.212 2208.36 167.635C2193.83 160.059 2182.45 149.581 2174.22 136.201C2165.99 122.66 2161.87 107.426 2161.87 90.5C2161.87 73.5738 2165.99 58.4208 2174.22 45.041C2182.45 31.5 2193.83 20.9413 2208.36 13.3648C2222.89 5.78825 2239.27 2 2257.51 2C2275.75 2 2292.13 5.78825 2306.66 13.3648C2321.19 20.9413 2332.57 31.5 2340.8 45.041C2349.03 58.4208 2353.15 73.5738 2353.15 90.5C2353.15 107.426 2349.03 122.66 2340.8 136.201C2332.57 149.581 2321.19 160.059 2306.66 167.635C2292.13 175.212 2275.75 179 2257.51 179ZM2257.51 132.816C2264.61 132.816 2270.99 131.123 2276.64 127.738C2282.45 124.191 2287.05 119.275 2290.44 112.988C2293.83 106.54 2295.52 99.0437 2295.52 90.5C2295.52 81.9563 2293.83 74.541 2290.44 68.2541C2287.05 61.806 2282.45 56.8894 2276.64 53.5041C2270.99 49.9577 2264.61 48.1844 2257.51 48.1844C2250.41 48.1844 2243.95 49.9577 2238.14 53.5041C2232.49 56.8894 2227.97 61.806 2224.58 68.2541C2221.19 74.541 2219.5 81.9563 2219.5 90.5C2219.5 99.0437 2221.19 106.54 2224.58 112.988C2227.97 119.275 2232.49 124.191 2238.14 127.738C2243.95 131.123 2250.41 132.816 2257.51 132.816Z"></path> <path d="M2437.08 179C2423.04 179 2409.32 177.469 2395.92 174.406C2382.68 171.182 2371.79 166.91 2363.23 161.59L2381.63 120C2389.71 124.675 2398.74 128.463 2408.75 131.365C2418.76 134.105 2428.36 135.475 2437.56 135.475C2445.47 135.475 2451.12 134.75 2454.51 133.299C2457.9 131.687 2459.6 129.35 2459.6 126.287C2459.6 122.74 2457.34 120.081 2452.82 118.307C2448.46 116.534 2441.2 114.6 2431.03 112.504C2417.95 109.764 2407.06 106.862 2398.34 103.799C2389.62 100.575 2382.04 95.4167 2375.58 88.3238C2369.12 81.0697 2365.9 71.3169 2365.9 59.0656C2365.9 48.4262 2368.88 38.7541 2374.86 30.0492C2380.83 21.3443 2389.71 14.4932 2401.49 9.49589C2413.43 4.49863 2427.88 2 2444.83 2C2456.45 2 2467.83 3.28962 2478.97 5.86885C2490.27 8.28688 2500.19 11.9139 2508.75 16.75L2491.56 58.0984C2474.93 49.7159 2459.19 45.5246 2444.34 45.5246C2429.66 45.5246 2422.31 49.071 2422.31 56.1639C2422.31 59.5492 2424.49 62.1284 2428.85 63.9016C2433.21 65.5137 2440.39 67.2869 2450.4 69.2213C2463.31 71.6394 2474.21 74.4604 2483.08 77.6844C2491.96 80.7473 2499.63 85.8251 2506.09 92.918C2512.7 100.011 2516.01 109.683 2516.01 121.934C2516.01 132.574 2513.03 142.246 2507.05 150.951C2501.08 159.495 2492.12 166.346 2480.18 171.504C2468.39 176.501 2454.03 179 2437.08 179Z"></path> <path d="M2700.08 5.86885V175.131H2642.94V112.746H2590.16V175.131H2533.02V5.86885H2590.16V65.8361H2642.94V5.86885H2700.08Z"></path> <path d="M2823.2 177.549C2814 177.549 2806.33 174.648 2800.2 168.844C2794.23 162.88 2791.24 155.303 2791.24 146.115C2791.24 136.926 2794.23 129.511 2800.2 123.869C2806.33 118.066 2814 115.164 2823.2 115.164C2832.4 115.164 2839.99 118.066 2845.96 123.869C2852.1 129.511 2855.16 136.926 2855.16 146.115C2855.16 155.303 2852.1 162.88 2845.96 168.844C2839.99 174.648 2832.4 177.549 2823.2 177.549Z"></path> <path d="M3222.1 5.86885L3167.87 175.131H3106.61L3079.25 84.6967L3050.44 175.131H2989.18L2934.95 5.86885H2993.78L3023.32 102.107L3054.55 5.86885H3107.09L3136.63 103.316L3167.87 5.86885H3222.1Z"></path> <path d="M3401.86 5.86885V175.131H3344.71V112.746H3291.93V175.131H3234.79V5.86885H3291.93V65.8361H3344.71V5.86885H3401.86Z"></path> <path d="M3518.25 179C3500.01 179 3483.62 175.212 3469.1 167.635C3454.57 160.059 3443.19 149.581 3434.96 136.201C3426.72 122.66 3422.61 107.426 3422.61 90.5C3422.61 73.5738 3426.72 58.4208 3434.96 45.041C3443.19 31.5 3454.57 20.9413 3469.1 13.3648C3483.62 5.78825 3500.01 2 3518.25 2C3536.49 2 3552.87 5.78825 3567.4 13.3648C3581.92 20.9413 3593.3 31.5 3601.54 45.041C3609.77 58.4208 3613.88 73.5738 3613.88 90.5C3613.88 107.426 3609.77 122.66 3601.54 136.201C3593.3 149.581 3581.92 160.059 3567.4 167.635C3552.87 175.212 3536.49 179 3518.25 179ZM3518.25 132.816C3525.35 132.816 3531.72 131.123 3537.37 127.738C3543.18 124.191 3547.78 119.275 3551.17 112.988C3554.56 106.54 3556.26 99.0437 3556.26 90.5C3556.26 81.9563 3554.56 74.541 3551.17 68.2541C3547.78 61.806 3543.18 56.8894 3537.37 53.5041C3531.72 49.9577 3525.35 48.1844 3518.25 48.1844C3511.14 48.1844 3504.69 49.9577 3498.88 53.5041C3493.23 56.8894 3488.71 61.806 3485.32 68.2541C3481.93 74.541 3480.23 81.9563 3480.23 90.5C3480.23 99.0437 3481.93 106.54 3485.32 112.988C3488.71 119.275 3493.23 124.191 3498.88 127.738C3504.69 131.123 3511.14 132.816 3518.25 132.816Z"></path> <path d="M3723.48 179C3705.24 179 3688.86 175.212 3674.33 167.635C3659.8 160.059 3648.42 149.581 3640.19 136.201C3631.96 122.66 3627.84 107.426 3627.84 90.5C3627.84 73.5738 3631.96 58.4208 3640.19 45.041C3648.42 31.5 3659.8 20.9413 3674.33 13.3648C3688.86 5.78825 3705.24 2 3723.48 2C3741.72 2 3758.11 5.78825 3772.63 13.3648C3787.16 20.9413 3798.54 31.5 3806.77 45.041C3815 58.4208 3819.12 73.5738 3819.12 90.5C3819.12 107.426 3815 122.66 3806.77 136.201C3798.54 149.581 3787.16 160.059 3772.63 167.635C3758.11 175.212 3741.72 179 3723.48 179ZM3723.48 132.816C3730.58 132.816 3736.96 131.123 3742.61 127.738C3748.42 124.191 3753.02 119.275 3756.41 112.988C3759.8 106.54 3761.5 99.0437 3761.5 90.5C3761.5 81.9563 3759.8 74.541 3756.41 68.2541C3753.02 61.806 3748.42 56.8894 3742.61 53.5041C3736.96 49.9577 3730.58 48.1844 3723.48 48.1844C3716.38 48.1844 3709.92 49.9577 3704.11 53.5041C3698.46 56.8894 3693.94 61.806 3690.55 68.2541C3687.16 74.541 3685.47 81.9563 3685.47 90.5C3685.47 99.0437 3687.16 106.54 3690.55 112.988C3693.94 119.275 3698.46 124.191 3704.11 127.738C3709.92 131.123 3716.38 132.816 3723.48 132.816Z"></path> <path d="M3903.05 179C3889.01 179 3875.29 177.469 3861.89 174.406C3848.66 171.182 3837.76 166.91 3829.21 161.59L3847.61 120C3855.68 124.675 3864.72 128.463 3874.73 131.365C3884.73 134.105 3894.34 135.475 3903.54 135.475C3911.45 135.475 3917.1 134.75 3920.49 133.299C3923.88 131.687 3925.57 129.35 3925.57 126.287C3925.57 122.74 3923.31 120.081 3918.79 118.307C3914.43 116.534 3907.17 114.6 3897 112.504C3883.93 109.764 3873.03 106.862 3864.31 103.799C3855.6 100.575 3848.01 95.4167 3841.55 88.3238C3835.1 81.0697 3831.87 71.3169 3831.87 59.0656C3831.87 48.4262 3834.86 38.7541 3840.83 30.0492C3846.8 21.3443 3855.68 14.4932 3867.46 9.49589C3879.41 4.49863 3893.85 2 3910.8 2C3922.42 2 3933.8 3.28962 3944.94 5.86885C3956.24 8.28688 3966.17 11.9139 3974.72 16.75L3957.53 58.0984C3940.91 49.7159 3925.17 45.5246 3910.32 45.5246C3895.63 45.5246 3888.28 49.071 3888.28 56.1639C3888.28 59.5492 3890.46 62.1284 3894.82 63.9016C3899.18 65.5137 3906.36 67.2869 3916.37 69.2213C3929.28 71.6394 3940.18 74.4604 3949.06 77.6844C3957.93 80.7473 3965.6 85.8251 3972.06 92.918C3978.68 100.011 3981.99 109.683 3981.99 121.934C3981.99 132.574 3979 142.246 3973.03 150.951C3967.05 159.495 3958.1 166.346 3946.15 171.504C3934.37 176.501 3920 179 3903.05 179Z"></path> <path d="M4166.05 5.86885V175.131H4108.91V112.746H4056.13V175.131H3998.99V5.86885H4056.13V65.8361H4108.91V5.86885H4166.05Z"></path> <path d="M4289.18 177.549C4279.97 177.549 4272.31 174.648 4266.17 168.844C4260.2 162.88 4257.21 155.303 4257.21 146.115C4257.21 136.926 4260.2 129.511 4266.17 123.869C4272.31 118.066 4279.97 115.164 4289.18 115.164C4298.38 115.164 4305.96 118.066 4311.93 123.869C4318.07 129.511 4321.14 136.926 4321.14 146.115C4321.14 155.303 4318.07 162.88 4311.93 168.844C4305.96 174.648 4298.38 177.549 4289.18 177.549Z"></path> <path d="M4688.08 5.86885L4633.84 175.131H4572.58L4545.22 84.6967L4516.41 175.131H4455.15L4400.92 5.86885H4459.75L4489.29 102.107L4520.53 5.86885H4573.07L4602.61 103.316L4633.84 5.86885H4688.08Z"></path> <path d="M4867.83 5.86885V175.131H4810.69V112.746H4757.9V175.131H4700.76V5.86885H4757.9V65.8361H4810.69V5.86885H4867.83Z"></path> <path d="M4984.22 179C4965.98 179 4949.59 175.212 4935.07 167.635C4920.54 160.059 4909.16 149.581 4900.93 136.201C4892.7 122.66 4888.58 107.426 4888.58 90.5C4888.58 73.5738 4892.7 58.4208 4900.93 45.041C4909.16 31.5 4920.54 20.9413 4935.07 13.3648C4949.59 5.78825 4965.98 2 4984.22 2C5002.46 2 5018.84 5.78825 5033.37 13.3648C5047.9 20.9413 5059.28 31.5 5067.51 45.041C5075.74 58.4208 5079.86 73.5738 5079.86 90.5C5079.86 107.426 5075.74 122.66 5067.51 136.201C5059.28 149.581 5047.9 160.059 5033.37 167.635C5018.84 175.212 5002.46 179 4984.22 179ZM4984.22 132.816C4991.32 132.816 4997.7 131.123 5003.35 127.738C5009.16 124.191 5013.76 119.275 5017.15 112.988C5020.54 106.54 5022.23 99.0437 5022.23 90.5C5022.23 81.9563 5020.54 74.541 5017.15 68.2541C5013.76 61.806 5009.16 56.8894 5003.35 53.5041C4997.7 49.9577 4991.32 48.1844 4984.22 48.1844C4977.12 48.1844 4970.66 49.9577 4964.85 53.5041C4959.2 56.8894 4954.68 61.806 4951.29 68.2541C4947.9 74.541 4946.21 81.9563 4946.21 90.5C4946.21 99.0437 4947.9 106.54 4951.29 112.988C4954.68 119.275 4959.2 124.191 4964.85 127.738C4970.66 131.123 4977.12 132.816 4984.22 132.816Z"></path> <path d="M5189.45 179C5171.21 179 5154.83 175.212 5140.3 167.635C5125.78 160.059 5114.4 149.581 5106.16 136.201C5097.93 122.66 5093.82 107.426 5093.82 90.5C5093.82 73.5738 5097.93 58.4208 5106.16 45.041C5114.4 31.5 5125.78 20.9413 5140.3 13.3648C5154.83 5.78825 5171.21 2 5189.45 2C5207.69 2 5224.08 5.78825 5238.61 13.3648C5253.13 20.9413 5264.51 31.5 5272.74 45.041C5280.98 58.4208 5285.09 73.5738 5285.09 90.5C5285.09 107.426 5280.98 122.66 5272.74 136.201C5264.51 149.581 5253.13 160.059 5238.61 167.635C5224.08 175.212 5207.69 179 5189.45 179ZM5189.45 132.816C5196.56 132.816 5202.93 131.123 5208.58 127.738C5214.39 124.191 5218.99 119.275 5222.38 112.988C5225.77 106.54 5227.47 99.0437 5227.47 90.5C5227.47 81.9563 5225.77 74.541 5222.38 68.2541C5218.99 61.806 5214.39 56.8894 5208.58 53.5041C5202.93 49.9577 5196.56 48.1844 5189.45 48.1844C5182.35 48.1844 5175.9 49.9577 5170.08 53.5041C5164.44 56.8894 5159.92 61.806 5156.53 68.2541C5153.14 74.541 5151.44 81.9563 5151.44 90.5C5151.44 99.0437 5153.14 106.54 5156.53 112.988C5159.92 119.275 5164.44 124.191 5170.08 127.738C5175.9 131.123 5182.35 132.816 5189.45 132.816Z"></path> <path d="M5369.03 179C5354.98 179 5341.26 177.469 5327.87 174.406C5314.63 171.182 5303.73 166.91 5295.18 161.59L5313.58 120C5321.65 124.675 5330.69 128.463 5340.7 131.365C5350.71 134.105 5360.31 135.475 5369.51 135.475C5377.42 135.475 5383.07 134.75 5386.46 133.299C5389.85 131.687 5391.54 129.35 5391.54 126.287C5391.54 122.74 5389.28 120.081 5384.76 118.307C5380.41 116.534 5373.14 114.6 5362.97 112.504C5349.9 109.764 5339 106.862 5330.29 103.799C5321.57 100.575 5313.98 95.4167 5307.53 88.3238C5301.07 81.0697 5297.84 71.3169 5297.84 59.0656C5297.84 48.4262 5300.83 38.7541 5306.8 30.0492C5312.77 21.3443 5321.65 14.4932 5333.43 9.49589C5345.38 4.49863 5359.83 2 5376.77 2C5388.4 2 5399.78 3.28962 5410.91 5.86885C5422.21 8.28688 5432.14 11.9139 5440.69 16.75L5423.5 58.0984C5406.88 49.7159 5391.14 45.5246 5376.29 45.5246C5361.6 45.5246 5354.26 49.071 5354.26 56.1639C5354.26 59.5492 5356.44 62.1284 5360.79 63.9016C5365.15 65.5137 5372.33 67.2869 5382.34 69.2213C5395.26 71.6394 5406.15 74.4604 5415.03 77.6844C5423.91 80.7473 5431.57 85.8251 5438.03 92.918C5444.65 100.011 5447.96 109.683 5447.96 121.934C5447.96 132.574 5444.97 142.246 5439 150.951C5433.03 159.495 5424.07 166.346 5412.12 171.504C5400.34 176.501 5385.97 179 5369.03 179Z"></path> <path d="M5632.03 5.86885V175.131H5574.88V112.746H5522.1V175.131H5464.96V5.86885H5522.1V65.8361H5574.88V5.86885H5632.03Z"></path> <path d="M5755.15 177.549C5745.95 177.549 5738.28 174.648 5732.15 168.844C5726.17 162.88 5723.19 155.303 5723.19 146.115C5723.19 136.926 5726.17 129.511 5732.15 123.869C5738.28 118.066 5745.95 115.164 5755.15 115.164C5764.35 115.164 5771.94 118.066 5777.91 123.869C5784.04 129.511 5787.11 136.926 5787.11 146.115C5787.11 155.303 5784.04 162.88 5777.91 168.844C5771.94 174.648 5764.35 177.549 5755.15 177.549Z"></path> <path d="M6154.05 5.86885L6099.81 175.131H6038.56L6011.2 84.6967L5982.38 175.131H5921.13L5866.89 5.86885H5925.73L5955.27 102.107L5986.5 5.86885H6039.04L6068.58 103.316L6099.81 5.86885H6154.05Z"></path> <path d="M6333.8 5.86885V175.131H6276.66V112.746H6223.88V175.131H6166.74V5.86885H6223.88V65.8361H6276.66V5.86885H6333.8Z"></path> <path d="M6450.19 179C6431.95 179 6415.57 175.212 6401.04 167.635C6386.51 160.059 6375.13 149.581 6366.9 136.201C6358.67 122.66 6354.55 107.426 6354.55 90.5C6354.55 73.5738 6358.67 58.4208 6366.9 45.041C6375.13 31.5 6386.51 20.9413 6401.04 13.3648C6415.57 5.78825 6431.95 2 6450.19 2C6468.43 2 6484.81 5.78825 6499.34 13.3648C6513.87 20.9413 6525.25 31.5 6533.48 45.041C6541.71 58.4208 6545.83 73.5738 6545.83 90.5C6545.83 107.426 6541.71 122.66 6533.48 136.201C6525.25 149.581 6513.87 160.059 6499.34 167.635C6484.81 175.212 6468.43 179 6450.19 179ZM6450.19 132.816C6457.29 132.816 6463.67 131.123 6469.32 127.738C6475.13 124.191 6479.73 119.275 6483.12 112.988C6486.51 106.54 6488.2 99.0437 6488.2 90.5C6488.2 81.9563 6486.51 74.541 6483.12 68.2541C6479.73 61.806 6475.13 56.8894 6469.32 53.5041C6463.67 49.9577 6457.29 48.1844 6450.19 48.1844C6443.09 48.1844 6436.63 49.9577 6430.82 53.5041C6425.17 56.8894 6420.65 61.806 6417.26 68.2541C6413.87 74.541 6412.18 81.9563 6412.18 90.5C6412.18 99.0437 6413.87 106.54 6417.26 112.988C6420.65 119.275 6425.17 124.191 6430.82 127.738C6436.63 131.123 6443.09 132.816 6450.19 132.816Z"></path> <path d="M6655.43 179C6637.19 179 6620.8 175.212 6606.28 167.635C6591.75 160.059 6580.37 149.581 6572.14 136.201C6563.91 122.66 6559.79 107.426 6559.79 90.5C6559.79 73.5738 6563.91 58.4208 6572.14 45.041C6580.37 31.5 6591.75 20.9413 6606.28 13.3648C6620.8 5.78825 6637.19 2 6655.43 2C6673.67 2 6690.05 5.78825 6704.58 13.3648C6719.11 20.9413 6730.49 31.5 6738.72 45.041C6746.95 58.4208 6751.07 73.5738 6751.07 90.5C6751.07 107.426 6746.95 122.66 6738.72 136.201C6730.49 149.581 6719.11 160.059 6704.58 167.635C6690.05 175.212 6673.67 179 6655.43 179ZM6655.43 132.816C6662.53 132.816 6668.91 131.123 6674.55 127.738C6680.37 124.191 6684.97 119.275 6688.36 112.988C6691.75 106.54 6693.44 99.0437 6693.44 90.5C6693.44 81.9563 6691.75 74.541 6688.36 68.2541C6684.97 61.806 6680.37 56.8894 6674.55 53.5041C6668.91 49.9577 6662.53 48.1844 6655.43 48.1844C6648.33 48.1844 6641.87 49.9577 6636.06 53.5041C6630.41 56.8894 6625.89 61.806 6622.5 68.2541C6619.11 74.541 6617.41 81.9563 6617.41 90.5C6617.41 99.0437 6619.11 106.54 6622.5 112.988C6625.89 119.275 6630.41 124.191 6636.06 127.738C6641.87 131.123 6648.33 132.816 6655.43 132.816Z"></path> <path d="M6835 179C6820.96 179 6807.24 177.469 6793.84 174.406C6780.6 171.182 6769.71 166.91 6761.15 161.59L6779.55 120C6787.62 124.675 6796.66 128.463 6806.67 131.365C6816.68 134.105 6826.28 135.475 6835.48 135.475C6843.39 135.475 6849.04 134.75 6852.43 133.299C6855.82 131.687 6857.52 129.35 6857.52 126.287C6857.52 122.74 6855.26 120.081 6850.74 118.307C6846.38 116.534 6839.11 114.6 6828.95 112.504C6815.87 109.764 6804.98 106.862 6796.26 103.799C6787.54 100.575 6779.96 95.4167 6773.5 88.3238C6767.04 81.0697 6763.81 71.3169 6763.81 59.0656C6763.81 48.4262 6766.8 38.7541 6772.77 30.0492C6778.75 21.3443 6787.62 14.4932 6799.41 9.49589C6811.35 4.49863 6825.8 2 6842.75 2C6854.37 2 6865.75 3.28962 6876.89 5.86885C6888.18 8.28688 6898.11 11.9139 6906.67 16.75L6889.48 58.0984C6872.85 49.7159 6857.11 45.5246 6842.26 45.5246C6827.57 45.5246 6820.23 49.071 6820.23 56.1639C6820.23 59.5492 6822.41 62.1284 6826.77 63.9016C6831.12 65.5137 6838.31 67.2869 6848.32 69.2213C6861.23 71.6394 6872.12 74.4604 6881 77.6844C6889.88 80.7473 6897.55 85.8251 6904 92.918C6910.62 100.011 6913.93 109.683 6913.93 121.934C6913.93 132.574 6910.94 142.246 6904.97 150.951C6899 159.495 6890.04 166.346 6878.1 171.504C6866.31 176.501 6851.95 179 6835 179Z"></path> <path d="M7098 5.86885V175.131H7040.86V112.746H6988.07V175.131H6930.93V5.86885H6988.07V65.8361H7040.86V5.86885H7098Z"></path> <path d="M7221.12 177.549C7211.92 177.549 7204.25 174.648 7198.12 168.844C7192.15 162.88 7189.16 155.303 7189.16 146.115C7189.16 136.926 7192.15 129.511 7198.12 123.869C7204.25 118.066 7211.92 115.164 7221.12 115.164C7230.32 115.164 7237.91 118.066 7243.88 123.869C7250.01 129.511 7253.08 136.926 7253.08 146.115C7253.08 155.303 7250.01 162.88 7243.88 168.844C7237.91 174.648 7230.32 177.549 7221.12 177.549Z"></path> <path d="M7620.02 5.86885L7565.79 175.131H7504.53L7477.17 84.6967L7448.36 175.131H7387.1L7332.86 5.86885H7391.7L7421.24 102.107L7452.47 5.86885H7505.01L7534.55 103.316L7565.79 5.86885H7620.02Z"></path> <path d="M7799.77 5.86885V175.131H7742.63V112.746H7689.85V175.131H7632.71V5.86885H7689.85V65.8361H7742.63V5.86885H7799.77Z"></path> <path d="M7916.16 179C7897.92 179 7881.54 175.212 7867.01 167.635C7852.49 160.059 7841.11 149.581 7832.87 136.201C7824.64 122.66 7820.53 107.426 7820.53 90.5C7820.53 73.5738 7824.64 58.4208 7832.87 45.041C7841.11 31.5 7852.49 20.9413 7867.01 13.3648C7881.54 5.78825 7897.92 2 7916.16 2C7934.4 2 7950.79 5.78825 7965.31 13.3648C7979.84 20.9413 7991.22 31.5 7999.45 45.041C8007.69 58.4208 8011.8 73.5738 8011.8 90.5C8011.8 107.426 8007.69 122.66 7999.45 136.201C7991.22 149.581 7979.84 160.059 7965.31 167.635C7950.79 175.212 7934.4 179 7916.16 179ZM7916.16 132.816C7923.27 132.816 7929.64 131.123 7935.29 127.738C7941.1 124.191 7945.7 119.275 7949.09 112.988C7952.48 106.54 7954.18 99.0437 7954.18 90.5C7954.18 81.9563 7952.48 74.541 7949.09 68.2541C7945.7 61.806 7941.1 56.8894 7935.29 53.5041C7929.64 49.9577 7923.27 48.1844 7916.16 48.1844C7909.06 48.1844 7902.61 49.9577 7896.79 53.5041C7891.14 56.8894 7886.63 61.806 7883.24 68.2541C7879.85 74.541 7878.15 81.9563 7878.15 90.5C7878.15 99.0437 7879.85 106.54 7883.24 112.988C7886.63 119.275 7891.14 124.191 7896.79 127.738C7902.61 131.123 7909.06 132.816 7916.16 132.816Z"></path> <path d="M8121.4 179C8103.16 179 8086.78 175.212 8072.25 167.635C8057.72 160.059 8046.34 149.581 8038.11 136.201C8029.88 122.66 8025.76 107.426 8025.76 90.5C8025.76 73.5738 8029.88 58.4208 8038.11 45.041C8046.34 31.5 8057.72 20.9413 8072.25 13.3648C8086.78 5.78825 8103.16 2 8121.4 2C8139.64 2 8156.02 5.78825 8170.55 13.3648C8185.08 20.9413 8196.46 31.5 8204.69 45.041C8212.92 58.4208 8217.04 73.5738 8217.04 90.5C8217.04 107.426 8212.92 122.66 8204.69 136.201C8196.46 149.581 8185.08 160.059 8170.55 167.635C8156.02 175.212 8139.64 179 8121.4 179ZM8121.4 132.816C8128.5 132.816 8134.88 131.123 8140.53 127.738C8146.34 124.191 8150.94 119.275 8154.33 112.988C8157.72 106.54 8159.41 99.0437 8159.41 90.5C8159.41 81.9563 8157.72 74.541 8154.33 68.2541C8150.94 61.806 8146.34 56.8894 8140.53 53.5041C8134.88 49.9577 8128.5 48.1844 8121.4 48.1844C8114.3 48.1844 8107.84 49.9577 8102.03 53.5041C8096.38 56.8894 8091.86 61.806 8088.47 68.2541C8085.08 74.541 8083.39 81.9563 8083.39 90.5C8083.39 99.0437 8085.08 106.54 8088.47 112.988C8091.86 119.275 8096.38 124.191 8102.03 127.738C8107.84 131.123 8114.3 132.816 8121.4 132.816Z"></path> <path d="M8300.97 179C8286.93 179 8273.21 177.469 8259.81 174.406C8246.57 171.182 8235.68 166.91 8227.12 161.59L8245.53 120C8253.6 124.675 8262.64 128.463 8272.64 131.365C8282.65 134.105 8292.26 135.475 8301.46 135.475C8309.37 135.475 8315.02 134.75 8318.4 133.299C8321.79 131.687 8323.49 129.35 8323.49 126.287C8323.49 122.74 8321.23 120.081 8316.71 118.307C8312.35 116.534 8305.09 114.6 8294.92 112.504C8281.84 109.764 8270.95 106.862 8262.23 103.799C8253.52 100.575 8245.93 95.4167 8239.47 88.3238C8233.02 81.0697 8229.79 71.3169 8229.79 59.0656C8229.79 48.4262 8232.77 38.7541 8238.75 30.0492C8244.72 21.3443 8253.6 14.4932 8265.38 9.49589C8277.32 4.49863 8291.77 2 8308.72 2C8320.34 2 8331.72 3.28962 8342.86 5.86885C8354.16 8.28688 8364.09 11.9139 8372.64 16.75L8355.45 58.0984C8338.82 49.7159 8323.09 45.5246 8308.24 45.5246C8293.55 45.5246 8286.2 49.071 8286.2 56.1639C8286.2 59.5492 8288.38 62.1284 8292.74 63.9016C8297.1 65.5137 8304.28 67.2869 8314.29 69.2213C8327.2 71.6394 8338.1 74.4604 8346.98 77.6844C8355.85 80.7473 8363.52 85.8251 8369.98 92.918C8376.59 100.011 8379.9 109.683 8379.9 121.934C8379.9 132.574 8376.92 142.246 8370.95 150.951C8364.97 159.495 8356.01 166.346 8344.07 171.504C8332.29 176.501 8317.92 179 8300.97 179Z"></path> <path d="M8563.97 5.86885V175.131H8506.83V112.746H8454.05V175.131H8396.91V5.86885H8454.05V65.8361H8506.83V5.86885H8563.97Z"></path> <path d="M8687.09 177.549C8677.89 177.549 8670.23 174.648 8664.09 168.844C8658.12 162.88 8655.13 155.303 8655.13 146.115C8655.13 136.926 8658.12 129.511 8664.09 123.869C8670.23 118.066 8677.89 115.164 8687.09 115.164C8696.29 115.164 8703.88 118.066 8709.85 123.869C8715.99 129.511 8719.05 136.926 8719.05 146.115C8719.05 155.303 8715.99 162.88 8709.85 168.844C8703.88 174.648 8696.29 177.549 8687.09 177.549Z"></path> <path d="M9085.99 5.86885L9031.76 175.131H8970.5L8943.14 84.6967L8914.33 175.131H8853.07L8798.84 5.86885H8857.67L8887.21 102.107L8918.45 5.86885H8970.99L9000.52 103.316L9031.76 5.86885H9085.99Z"></path> <path d="M9265.75 5.86885V175.131H9208.61V112.746H9155.82V175.131H9098.68V5.86885H9155.82V65.8361H9208.61V5.86885H9265.75Z"></path> <path d="M9382.14 179C9363.9 179 9347.51 175.212 9332.99 167.635C9318.46 160.059 9307.08 149.581 9298.85 136.201C9290.62 122.66 9286.5 107.426 9286.5 90.5C9286.5 73.5738 9290.62 58.4208 9298.85 45.041C9307.08 31.5 9318.46 20.9413 9332.99 13.3648C9347.51 5.78825 9363.9 2 9382.14 2C9400.38 2 9416.76 5.78825 9431.29 13.3648C9445.81 20.9413 9457.19 31.5 9465.43 45.041C9473.66 58.4208 9477.78 73.5738 9477.78 90.5C9477.78 107.426 9473.66 122.66 9465.43 136.201C9457.19 149.581 9445.81 160.059 9431.29 167.635C9416.76 175.212 9400.38 179 9382.14 179ZM9382.14 132.816C9389.24 132.816 9395.62 131.123 9401.26 127.738C9407.08 124.191 9411.68 119.275 9415.07 112.988C9418.46 106.54 9420.15 99.0437 9420.15 90.5C9420.15 81.9563 9418.46 74.541 9415.07 68.2541C9411.68 61.806 9407.08 56.8894 9401.26 53.5041C9395.62 49.9577 9389.24 48.1844 9382.14 48.1844C9375.04 48.1844 9368.58 49.9577 9362.77 53.5041C9357.12 56.8894 9352.6 61.806 9349.21 68.2541C9345.82 74.541 9344.12 81.9563 9344.12 90.5C9344.12 99.0437 9345.82 106.54 9349.21 112.988C9352.6 119.275 9357.12 124.191 9362.77 127.738C9368.58 131.123 9375.04 132.816 9382.14 132.816Z"></path> <path d="M9587.37 179C9569.13 179 9552.75 175.212 9538.22 167.635C9523.7 160.059 9512.32 149.581 9504.08 136.201C9495.85 122.66 9491.74 107.426 9491.74 90.5C9491.74 73.5738 9495.85 58.4208 9504.08 45.041C9512.32 31.5 9523.7 20.9413 9538.22 13.3648C9552.75 5.78825 9569.13 2 9587.37 2C9605.61 2 9622 5.78825 9636.52 13.3648C9651.05 20.9413 9662.43 31.5 9670.66 45.041C9678.9 58.4208 9683.01 73.5738 9683.01 90.5C9683.01 107.426 9678.9 122.66 9670.66 136.201C9662.43 149.581 9651.05 160.059 9636.52 167.635C9622 175.212 9605.61 179 9587.37 179ZM9587.37 132.816C9594.48 132.816 9600.85 131.123 9606.5 127.738C9612.31 124.191 9616.91 119.275 9620.3 112.988C9623.69 106.54 9625.39 99.0437 9625.39 90.5C9625.39 81.9563 9623.69 74.541 9620.3 68.2541C9616.91 61.806 9612.31 56.8894 9606.5 53.5041C9600.85 49.9577 9594.48 48.1844 9587.37 48.1844C9580.27 48.1844 9573.81 49.9577 9568 53.5041C9562.35 56.8894 9557.83 61.806 9554.45 68.2541C9551.06 74.541 9549.36 81.9563 9549.36 90.5C9549.36 99.0437 9551.06 106.54 9554.45 112.988C9557.83 119.275 9562.35 124.191 9568 127.738C9573.81 131.123 9580.27 132.816 9587.37 132.816Z"></path> <path d="M9766.94 179C9752.9 179 9739.18 177.469 9725.78 174.406C9712.55 171.182 9701.65 166.91 9693.1 161.59L9711.5 120C9719.57 124.675 9728.61 128.463 9738.62 131.365C9748.62 134.105 9758.23 135.475 9767.43 135.475C9775.34 135.475 9780.99 134.75 9784.38 133.299C9787.77 131.687 9789.46 129.35 9789.46 126.287C9789.46 122.74 9787.2 120.081 9782.68 118.307C9778.32 116.534 9771.06 114.6 9760.89 112.504C9747.82 109.764 9736.92 106.862 9728.21 103.799C9719.49 100.575 9711.9 95.4167 9705.45 88.3238C9698.99 81.0697 9695.76 71.3169 9695.76 59.0656C9695.76 48.4262 9698.75 38.7541 9704.72 30.0492C9710.69 21.3443 9719.57 14.4932 9731.35 9.49589C9743.3 4.49863 9757.74 2 9774.69 2C9786.31 2 9797.69 3.28962 9808.83 5.86885C9820.13 8.28688 9830.06 11.9139 9838.61 16.75L9821.42 58.0984C9804.8 49.7159 9789.06 45.5246 9774.21 45.5246C9759.52 45.5246 9752.18 49.071 9752.18 56.1639C9752.18 59.5492 9754.35 62.1284 9758.71 63.9016C9763.07 65.5137 9770.25 67.2869 9780.26 69.2213C9793.18 71.6394 9804.07 74.4604 9812.95 77.6844C9821.83 80.7473 9829.49 85.8251 9835.95 92.918C9842.57 100.011 9845.88 109.683 9845.88 121.934C9845.88 132.574 9842.89 142.246 9836.92 150.951C9830.95 159.495 9821.99 166.346 9810.04 171.504C9798.26 176.501 9783.89 179 9766.94 179Z"></path> <path d="M10029.9 5.86885V175.131H9972.8V112.746H9920.02V175.131H9862.88V5.86885H9920.02V65.8361H9972.8V5.86885H10029.9Z"></path> <path d="M10153.1 177.549C10143.9 177.549 10136.2 174.648 10130.1 168.844C10124.1 162.88 10121.1 155.303 10121.1 146.115C10121.1 136.926 10124.1 129.511 10130.1 123.869C10136.2 118.066 10143.9 115.164 10153.1 115.164C10162.3 115.164 10169.9 118.066 10175.8 123.869C10182 129.511 10185 136.926 10185 146.115C10185 155.303 10182 162.88 10175.8 168.844C10169.9 174.648 10162.3 177.549 10153.1 177.549Z"></path> <path d="M10552 5.86885L10497.7 175.131H10436.5L10409.1 84.6967L10380.3 175.131H10319L10264.8 5.86885H10323.6L10353.2 102.107L10384.4 5.86885H10437L10466.5 103.316L10497.7 5.86885H10552Z"></path> <path d="M10731.7 5.86885V175.131H10674.6V112.746H10621.8V175.131H10564.7V5.86885H10621.8V65.8361H10674.6V5.86885H10731.7Z"></path> <path d="M10848.1 179C10829.9 179 10813.5 175.212 10799 167.635C10784.4 160.059 10773.1 149.581 10764.8 136.201C10756.6 122.66 10752.5 107.426 10752.5 90.5C10752.5 73.5738 10756.6 58.4208 10764.8 45.041C10773.1 31.5 10784.4 20.9413 10799 13.3648C10813.5 5.78825 10829.9 2 10848.1 2C10866.3 2 10882.7 5.78825 10897.3 13.3648C10911.8 20.9413 10923.2 31.5 10931.4 45.041C10939.6 58.4208 10943.7 73.5738 10943.7 90.5C10943.7 107.426 10939.6 122.66 10931.4 136.201C10923.2 149.581 10911.8 160.059 10897.3 167.635C10882.7 175.212 10866.3 179 10848.1 179ZM10848.1 132.816C10855.2 132.816 10861.6 131.123 10867.2 127.738C10873 124.191 10877.6 119.275 10881 112.988C10884.4 106.54 10886.1 99.0437 10886.1 90.5C10886.1 81.9563 10884.4 74.541 10881 68.2541C10877.6 61.806 10873 56.8894 10867.2 53.5041C10861.6 49.9577 10855.2 48.1844 10848.1 48.1844C10841 48.1844 10834.6 49.9577 10828.7 53.5041C10823.1 56.8894 10818.6 61.806 10815.2 68.2541C10811.8 74.541 10810.1 81.9563 10810.1 90.5C10810.1 99.0437 10811.8 106.54 10815.2 112.988C10818.6 119.275 10823.1 124.191 10828.7 127.738C10834.6 131.123 10841 132.816 10848.1 132.816Z"></path> <path d="M11053.3 179C11035.1 179 11018.7 175.212 11004.2 167.635C10989.7 160.059 10978.3 149.581 10970.1 136.201C10961.8 122.66 10957.7 107.426 10957.7 90.5C10957.7 73.5738 10961.8 58.4208 10970.1 45.041C10978.3 31.5 10989.7 20.9413 11004.2 13.3648C11018.7 5.78825 11035.1 2 11053.3 2C11071.6 2 11088 5.78825 11102.5 13.3648C11117 20.9413 11128.4 31.5 11136.6 45.041C11144.9 58.4208 11149 73.5738 11149 90.5C11149 107.426 11144.9 122.66 11136.6 136.201C11128.4 149.581 11117 160.059 11102.5 167.635C11088 175.212 11071.6 179 11053.3 179ZM11053.3 132.816C11060.4 132.816 11066.8 131.123 11072.5 127.738C11078.3 124.191 11082.9 119.275 11086.3 112.988C11089.7 106.54 11091.4 99.0437 11091.4 90.5C11091.4 81.9563 11089.7 74.541 11086.3 68.2541C11082.9 61.806 11078.3 56.8894 11072.5 53.5041C11066.8 49.9577 11060.4 48.1844 11053.3 48.1844C11046.2 48.1844 11039.8 49.9577 11034 53.5041C11028.3 56.8894 11023.8 61.806 11020.4 68.2541C11017 74.541 11015.3 81.9563 11015.3 90.5C11015.3 99.0437 11017 106.54 11020.4 112.988C11023.8 119.275 11028.3 124.191 11034 127.738C11039.8 131.123 11046.2 132.816 11053.3 132.816Z"></path> <path d="M11232.9 179C11218.9 179 11205.2 177.469 11191.8 174.406C11178.5 171.182 11167.6 166.91 11159.1 161.59L11177.5 120C11185.5 124.675 11194.6 128.463 11204.6 131.365C11214.6 134.105 11224.2 135.475 11233.4 135.475C11241.3 135.475 11247 134.75 11250.4 133.299C11253.7 131.687 11255.4 129.35 11255.4 126.287C11255.4 122.74 11253.2 120.081 11248.7 118.307C11244.3 116.534 11237 114.6 11226.9 112.504C11213.8 109.764 11202.9 106.862 11194.2 103.799C11185.5 100.575 11177.9 95.4167 11171.4 88.3238C11165 81.0697 11161.7 71.3169 11161.7 59.0656C11161.7 48.4262 11164.7 38.7541 11170.7 30.0492C11176.7 21.3443 11185.5 14.4932 11197.3 9.49589C11209.3 4.49863 11223.7 2 11240.7 2C11252.3 2 11263.7 3.28962 11274.8 5.86885C11286.1 8.28688 11296 11.9139 11304.6 16.75L11287.4 58.0984C11270.8 49.7159 11255 45.5246 11240.2 45.5246C11225.5 45.5246 11218.1 49.071 11218.1 56.1639C11218.1 59.5492 11220.3 62.1284 11224.7 63.9016C11229 65.5137 11236.2 67.2869 11246.2 69.2213C11259.1 71.6394 11270 74.4604 11278.9 77.6844C11287.8 80.7473 11295.5 85.8251 11301.9 92.918C11308.5 100.011 11311.8 109.683 11311.8 121.934C11311.8 132.574 11308.9 142.246 11302.9 150.951C11296.9 159.495 11288 166.346 11276 171.504C11264.2 176.501 11249.9 179 11232.9 179Z"></path> <path d="M11495.9 5.86885V175.131H11438.8V112.746H11386V175.131H11328.9V5.86885H11386V65.8361H11438.8V5.86885H11495.9Z"></path> <path d="M11619 177.549C11609.8 177.549 11602.2 174.648 11596 168.844C11590.1 162.88 11587.1 155.303 11587.1 146.115C11587.1 136.926 11590.1 129.511 11596 123.869C11602.2 118.066 11609.8 115.164 11619 115.164C11628.2 115.164 11635.8 118.066 11641.8 123.869C11647.9 129.511 11651 136.926 11651 146.115C11651 155.303 11647.9 162.88 11641.8 168.844C11635.8 174.648 11628.2 177.549 11619 177.549Z"></path> </mask> <path d="M290.157 5.86885L235.921 175.131H174.664L147.305 84.6967L118.492 175.131H57.2353L3 5.86885H61.8356L91.3745 102.107L122.608 5.86885H175.149L204.688 103.316L235.921 5.86885H290.157Z" stroke="white" stroke-width="4" mask="url(#path-1-outside-1)"></path> <path d="M469.91 5.86885V175.131H412.769V112.746H359.986V175.131H302.845V5.86885H359.986V65.8361H412.769V5.86885H469.91Z" stroke="white" stroke-width="4" mask="url(#path-1-outside-1)"></path> <path d="M586.3 179C568.06 179 551.677 175.212 537.149 167.635C522.622 160.059 511.242 149.581 503.01 136.201C494.778 122.66 490.662 107.426 490.662 90.5C490.662 73.5738 494.778 58.4208 503.01 45.041C511.242 31.5 522.622 20.9413 537.149 13.3648C551.677 5.78825 568.06 2 586.3 2C604.54 2 620.924 5.78825 635.451 13.3648C649.978 20.9413 661.358 31.5 669.59 45.041C677.822 58.4208 681.938 73.5738 681.938 90.5C681.938 107.426 677.822 122.66 669.59 136.201C661.358 149.581 649.978 160.059 635.451 167.635C620.924 175.212 604.54 179 586.3 179ZM586.3 132.816C593.402 132.816 599.778 131.123 605.428 127.738C611.239 124.191 615.839 119.275 619.229 112.988C622.618 106.54 624.313 99.0437 624.313 90.5C624.313 81.9563 622.618 74.541 619.229 68.2541C615.839 61.806 611.239 56.8894 605.428 53.5041C599.778 49.9577 593.402 48.1844 586.3 48.1844C579.198 48.1844 572.741 49.9577 566.93 53.5041C561.281 56.8894 556.761 61.806 553.372 68.2541C549.982 74.541 548.287 81.9563 548.287 90.5C548.287 99.0437 549.982 106.54 553.372 112.988C556.761 119.275 561.281 124.191 566.93 127.738C572.741 131.123 579.198 132.816 586.3 132.816Z" stroke="white" stroke-width="4" mask="url(#path-1-outside-1)"></path> <path d="M791.536 179C773.296 179 756.913 175.212 742.386 167.635C727.858 160.059 716.479 149.581 708.246 136.201C700.014 122.66 695.898 107.426 695.898 90.5C695.898 73.5738 700.014 58.4208 708.246 45.041C716.479 31.5 727.858 20.9413 742.386 13.3648C756.913 5.78825 773.296 2 791.536 2C809.776 2 826.16 5.78825 840.687 13.3648C855.214 20.9413 866.594 31.5 874.826 45.041C883.058 58.4208 887.175 73.5738 887.175 90.5C887.175 107.426 883.058 122.66 874.826 136.201C866.594 149.581 855.214 160.059 840.687 167.635C826.16 175.212 809.776 179 791.536 179ZM791.536 132.816C798.639 132.816 805.014 131.123 810.664 127.738C816.475 124.191 821.075 119.275 824.465 112.988C827.855 106.54 829.55 99.0437 829.55 90.5C829.55 81.9563 827.855 74.541 824.465 68.2541C821.075 61.806 816.475 56.8894 810.664 53.5041C805.014 49.9577 798.639 48.1844 791.536 48.1844C784.434 48.1844 777.978 49.9577 772.167 53.5041C766.517 56.8894 761.998 61.806 758.608 68.2541C755.218 74.541 753.523 81.9563 753.523 90.5C753.523 99.0437 755.218 106.54 758.608 112.988C761.998 119.275 766.517 124.191 772.167 127.738C777.978 131.123 784.434 132.816 791.536 132.816Z" stroke="white" stroke-width="4" mask="url(#path-1-outside-1)"></path> <path d="M971.108 179C957.065 179 943.344 177.469 929.947 174.406C916.711 171.182 905.815 166.91 897.26 161.59L915.662 120C923.732 124.675 932.772 128.463 942.779 131.365C952.787 134.105 962.391 135.475 971.592 135.475C979.501 135.475 985.151 134.75 988.54 133.299C991.93 131.687 993.625 129.35 993.625 126.287C993.625 122.74 991.365 120.081 986.846 118.307C982.487 116.534 975.224 114.6 965.055 112.504C951.98 109.764 941.085 106.862 932.368 103.799C923.652 100.575 916.065 95.4167 909.609 88.3238C903.152 81.0697 899.924 71.3169 899.924 59.0656C899.924 48.4262 902.91 38.7541 908.882 30.0492C914.855 21.3443 923.732 14.4932 935.516 9.49589C947.46 4.49863 961.907 2 978.856 2C990.477 2 1001.86 3.28962 1012.99 5.86885C1024.29 8.28688 1034.22 11.9139 1042.78 16.75L1025.59 58.0984C1008.96 49.7159 993.221 45.5246 978.371 45.5246C963.683 45.5246 956.338 49.071 956.338 56.1639C956.338 59.5492 958.517 62.1284 962.875 63.9016C967.234 65.5137 974.417 67.2869 984.424 69.2213C997.338 71.6394 1008.23 74.4604 1017.11 77.6844C1025.99 80.7473 1033.66 85.8251 1040.11 92.918C1046.73 100.011 1050.04 109.683 1050.04 121.934C1050.04 132.574 1047.05 142.246 1041.08 150.951C1035.11 159.495 1026.15 166.346 1014.21 171.504C1002.42 176.501 988.056 179 971.108 179Z" stroke="white" stroke-width="4" mask="url(#path-1-outside-1)"></path> <path d="M1234.11 5.86885V175.131H1176.97V112.746H1124.18V175.131H1067.04V5.86885H1124.18V65.8361H1176.97V5.86885H1234.11Z" stroke="white" stroke-width="4" mask="url(#path-1-outside-1)"></path> <path d="M1357.23 177.549C1348.03 177.549 1340.36 174.648 1334.23 168.844C1328.26 162.88 1325.27 155.303 1325.27 146.115C1325.27 136.926 1328.26 129.511 1334.23 123.869C1340.36 118.066 1348.03 115.164 1357.23 115.164C1366.43 115.164 1374.02 118.066 1379.99 123.869C1386.12 129.511 1389.19 136.926 1389.19 146.115C1389.19 155.303 1386.12 162.88 1379.99 168.844C1374.02 174.648 1366.43 177.549 1357.23 177.549Z" stroke="white" stroke-width="4" mask="url(#path-1-outside-1)"></path> <path d="M1756.13 5.86885L1701.89 175.131H1640.64L1613.28 84.6967L1584.46 175.131H1523.21L1468.97 5.86885H1527.81L1557.35 102.107L1588.58 5.86885H1641.12L1670.66 103.316L1701.89 5.86885H1756.13Z" stroke="white" stroke-width="4" mask="url(#path-1-outside-1)"></path> <path d="M1935.88 5.86885V175.131H1878.74V112.746H1825.96V175.131H1768.82V5.86885H1825.96V65.8361H1878.74V5.86885H1935.88Z" stroke="white" stroke-width="4" mask="url(#path-1-outside-1)"></path> <path d="M2052.27 179C2034.03 179 2017.65 175.212 2003.12 167.635C1988.59 160.059 1977.22 149.581 1968.98 136.201C1960.75 122.66 1956.63 107.426 1956.63 90.5C1956.63 73.5738 1960.75 58.4208 1968.98 45.041C1977.22 31.5 1988.59 20.9413 2003.12 13.3648C2017.65 5.78825 2034.03 2 2052.27 2C2070.51 2 2086.9 5.78825 2101.42 13.3648C2115.95 20.9413 2127.33 31.5 2135.56 45.041C2143.8 58.4208 2147.91 73.5738 2147.91 90.5C2147.91 107.426 2143.8 122.66 2135.56 136.201C2127.33 149.581 2115.95 160.059 2101.42 167.635C2086.9 175.212 2070.51 179 2052.27 179ZM2052.27 132.816C2059.38 132.816 2065.75 131.123 2071.4 127.738C2077.21 124.191 2081.81 119.275 2085.2 112.988C2088.59 106.54 2090.29 99.0437 2090.29 90.5C2090.29 81.9563 2088.59 74.541 2085.2 68.2541C2081.81 61.806 2077.21 56.8894 2071.4 53.5041C2065.75 49.9577 2059.38 48.1844 2052.27 48.1844C2045.17 48.1844 2038.71 49.9577 2032.9 53.5041C2027.25 56.8894 2022.73 61.806 2019.34 68.2541C2015.95 74.541 2014.26 81.9563 2014.26 90.5C2014.26 99.0437 2015.95 106.54 2019.34 112.988C2022.73 119.275 2027.25 124.191 2032.9 127.738C2038.71 131.123 2045.17 132.816 2052.27 132.816Z" stroke="white" stroke-width="4" mask="url(#path-1-outside-1)"></path> <path d="M2257.51 179C2239.27 179 2222.89 175.212 2208.36 167.635C2193.83 160.059 2182.45 149.581 2174.22 136.201C2165.99 122.66 2161.87 107.426 2161.87 90.5C2161.87 73.5738 2165.99 58.4208 2174.22 45.041C2182.45 31.5 2193.83 20.9413 2208.36 13.3648C2222.89 5.78825 2239.27 2 2257.51 2C2275.75 2 2292.13 5.78825 2306.66 13.3648C2321.19 20.9413 2332.57 31.5 2340.8 45.041C2349.03 58.4208 2353.15 73.5738 2353.15 90.5C2353.15 107.426 2349.03 122.66 2340.8 136.201C2332.57 149.581 2321.19 160.059 2306.66 167.635C2292.13 175.212 2275.75 179 2257.51 179ZM2257.51 132.816C2264.61 132.816 2270.99 131.123 2276.64 127.738C2282.45 124.191 2287.05 119.275 2290.44 112.988C2293.83 106.54 2295.52 99.0437 2295.52 90.5C2295.52 81.9563 2293.83 74.541 2290.44 68.2541C2287.05 61.806 2282.45 56.8894 2276.64 53.5041C2270.99 49.9577 2264.61 48.1844 2257.51 48.1844C2250.41 48.1844 2243.95 49.9577 2238.14 53.5041C2232.49 56.8894 2227.97 61.806 2224.58 68.2541C2221.19 74.541 2219.5 81.9563 2219.5 90.5C2219.5 99.0437 2221.19 106.54 2224.58 112.988C2227.97 119.275 2232.49 124.191 2238.14 127.738C2243.95 131.123 2250.41 132.816 2257.51 132.816Z" stroke="white" stroke-width="4" mask="url(#path-1-outside-1)"></path> <path d="M2437.08 179C2423.04 179 2409.32 177.469 2395.92 174.406C2382.68 171.182 2371.79 166.91 2363.23 161.59L2381.63 120C2389.71 124.675 2398.74 128.463 2408.75 131.365C2418.76 134.105 2428.36 135.475 2437.56 135.475C2445.47 135.475 2451.12 134.75 2454.51 133.299C2457.9 131.687 2459.6 129.35 2459.6 126.287C2459.6 122.74 2457.34 120.081 2452.82 118.307C2448.46 116.534 2441.2 114.6 2431.03 112.504C2417.95 109.764 2407.06 106.862 2398.34 103.799C2389.62 100.575 2382.04 95.4167 2375.58 88.3238C2369.12 81.0697 2365.9 71.3169 2365.9 59.0656C2365.9 48.4262 2368.88 38.7541 2374.86 30.0492C2380.83 21.3443 2389.71 14.4932 2401.49 9.49589C2413.43 4.49863 2427.88 2 2444.83 2C2456.45 2 2467.83 3.28962 2478.97 5.86885C2490.27 8.28688 2500.19 11.9139 2508.75 16.75L2491.56 58.0984C2474.93 49.7159 2459.19 45.5246 2444.34 45.5246C2429.66 45.5246 2422.31 49.071 2422.31 56.1639C2422.31 59.5492 2424.49 62.1284 2428.85 63.9016C2433.21 65.5137 2440.39 67.2869 2450.4 69.2213C2463.31 71.6394 2474.21 74.4604 2483.08 77.6844C2491.96 80.7473 2499.63 85.8251 2506.09 92.918C2512.7 100.011 2516.01 109.683 2516.01 121.934C2516.01 132.574 2513.03 142.246 2507.05 150.951C2501.08 159.495 2492.12 166.346 2480.18 171.504C2468.39 176.501 2454.03 179 2437.08 179Z" stroke="white" stroke-width="4" mask="url(#path-1-outside-1)"></path> <path d="M2700.08 5.86885V175.131H2642.94V112.746H2590.16V175.131H2533.02V5.86885H2590.16V65.8361H2642.94V5.86885H2700.08Z" stroke="white" stroke-width="4" mask="url(#path-1-outside-1)"></path> <path d="M2823.2 177.549C2814 177.549 2806.33 174.648 2800.2 168.844C2794.23 162.88 2791.24 155.303 2791.24 146.115C2791.24 136.926 2794.23 129.511 2800.2 123.869C2806.33 118.066 2814 115.164 2823.2 115.164C2832.4 115.164 2839.99 118.066 2845.96 123.869C2852.1 129.511 2855.16 136.926 2855.16 146.115C2855.16 155.303 2852.1 162.88 2845.96 168.844C2839.99 174.648 2832.4 177.549 2823.2 177.549Z" stroke="white" stroke-width="4" mask="url(#path-1-outside-1)"></path> <path d="M3222.1 5.86885L3167.87 175.131H3106.61L3079.25 84.6967L3050.44 175.131H2989.18L2934.95 5.86885H2993.78L3023.32 102.107L3054.55 5.86885H3107.09L3136.63 103.316L3167.87 5.86885H3222.1Z" stroke="white" stroke-width="4" mask="url(#path-1-outside-1)"></path> <path d="M3401.86 5.86885V175.131H3344.71V112.746H3291.93V175.131H3234.79V5.86885H3291.93V65.8361H3344.71V5.86885H3401.86Z" stroke="white" stroke-width="4" mask="url(#path-1-outside-1)"></path> <path d="M3518.25 179C3500.01 179 3483.62 175.212 3469.1 167.635C3454.57 160.059 3443.19 149.581 3434.96 136.201C3426.72 122.66 3422.61 107.426 3422.61 90.5C3422.61 73.5738 3426.72 58.4208 3434.96 45.041C3443.19 31.5 3454.57 20.9413 3469.1 13.3648C3483.62 5.78825 3500.01 2 3518.25 2C3536.49 2 3552.87 5.78825 3567.4 13.3648C3581.92 20.9413 3593.3 31.5 3601.54 45.041C3609.77 58.4208 3613.88 73.5738 3613.88 90.5C3613.88 107.426 3609.77 122.66 3601.54 136.201C3593.3 149.581 3581.92 160.059 3567.4 167.635C3552.87 175.212 3536.49 179 3518.25 179ZM3518.25 132.816C3525.35 132.816 3531.72 131.123 3537.37 127.738C3543.18 124.191 3547.78 119.275 3551.17 112.988C3554.56 106.54 3556.26 99.0437 3556.26 90.5C3556.26 81.9563 3554.56 74.541 3551.17 68.2541C3547.78 61.806 3543.18 56.8894 3537.37 53.5041C3531.72 49.9577 3525.35 48.1844 3518.25 48.1844C3511.14 48.1844 3504.69 49.9577 3498.88 53.5041C3493.23 56.8894 3488.71 61.806 3485.32 68.2541C3481.93 74.541 3480.23 81.9563 3480.23 90.5C3480.23 99.0437 3481.93 106.54 3485.32 112.988C3488.71 119.275 3493.23 124.191 3498.88 127.738C3504.69 131.123 3511.14 132.816 3518.25 132.816Z" stroke="white" stroke-width="4" mask="url(#path-1-outside-1)"></path> <path d="M3723.48 179C3705.24 179 3688.86 175.212 3674.33 167.635C3659.8 160.059 3648.42 149.581 3640.19 136.201C3631.96 122.66 3627.84 107.426 3627.84 90.5C3627.84 73.5738 3631.96 58.4208 3640.19 45.041C3648.42 31.5 3659.8 20.9413 3674.33 13.3648C3688.86 5.78825 3705.24 2 3723.48 2C3741.72 2 3758.11 5.78825 3772.63 13.3648C3787.16 20.9413 3798.54 31.5 3806.77 45.041C3815 58.4208 3819.12 73.5738 3819.12 90.5C3819.12 107.426 3815 122.66 3806.77 136.201C3798.54 149.581 3787.16 160.059 3772.63 167.635C3758.11 175.212 3741.72 179 3723.48 179ZM3723.48 132.816C3730.58 132.816 3736.96 131.123 3742.61 127.738C3748.42 124.191 3753.02 119.275 3756.41 112.988C3759.8 106.54 3761.5 99.0437 3761.5 90.5C3761.5 81.9563 3759.8 74.541 3756.41 68.2541C3753.02 61.806 3748.42 56.8894 3742.61 53.5041C3736.96 49.9577 3730.58 48.1844 3723.48 48.1844C3716.38 48.1844 3709.92 49.9577 3704.11 53.5041C3698.46 56.8894 3693.94 61.806 3690.55 68.2541C3687.16 74.541 3685.47 81.9563 3685.47 90.5C3685.47 99.0437 3687.16 106.54 3690.55 112.988C3693.94 119.275 3698.46 124.191 3704.11 127.738C3709.92 131.123 3716.38 132.816 3723.48 132.816Z" stroke="white" stroke-width="4" mask="url(#path-1-outside-1)"></path> <path d="M3903.05 179C3889.01 179 3875.29 177.469 3861.89 174.406C3848.66 171.182 3837.76 166.91 3829.21 161.59L3847.61 120C3855.68 124.675 3864.72 128.463 3874.73 131.365C3884.73 134.105 3894.34 135.475 3903.54 135.475C3911.45 135.475 3917.1 134.75 3920.49 133.299C3923.88 131.687 3925.57 129.35 3925.57 126.287C3925.57 122.74 3923.31 120.081 3918.79 118.307C3914.43 116.534 3907.17 114.6 3897 112.504C3883.93 109.764 3873.03 106.862 3864.31 103.799C3855.6 100.575 3848.01 95.4167 3841.55 88.3238C3835.1 81.0697 3831.87 71.3169 3831.87 59.0656C3831.87 48.4262 3834.86 38.7541 3840.83 30.0492C3846.8 21.3443 3855.68 14.4932 3867.46 9.49589C3879.41 4.49863 3893.85 2 3910.8 2C3922.42 2 3933.8 3.28962 3944.94 5.86885C3956.24 8.28688 3966.17 11.9139 3974.72 16.75L3957.53 58.0984C3940.91 49.7159 3925.17 45.5246 3910.32 45.5246C3895.63 45.5246 3888.28 49.071 3888.28 56.1639C3888.28 59.5492 3890.46 62.1284 3894.82 63.9016C3899.18 65.5137 3906.36 67.2869 3916.37 69.2213C3929.28 71.6394 3940.18 74.4604 3949.06 77.6844C3957.93 80.7473 3965.6 85.8251 3972.06 92.918C3978.68 100.011 3981.99 109.683 3981.99 121.934C3981.99 132.574 3979 142.246 3973.03 150.951C3967.05 159.495 3958.1 166.346 3946.15 171.504C3934.37 176.501 3920 179 3903.05 179Z" stroke="white" stroke-width="4" mask="url(#path-1-outside-1)"></path> <path d="M4166.05 5.86885V175.131H4108.91V112.746H4056.13V175.131H3998.99V5.86885H4056.13V65.8361H4108.91V5.86885H4166.05Z" stroke="white" stroke-width="4" mask="url(#path-1-outside-1)"></path> <path d="M4289.18 177.549C4279.97 177.549 4272.31 174.648 4266.17 168.844C4260.2 162.88 4257.21 155.303 4257.21 146.115C4257.21 136.926 4260.2 129.511 4266.17 123.869C4272.31 118.066 4279.97 115.164 4289.18 115.164C4298.38 115.164 4305.96 118.066 4311.93 123.869C4318.07 129.511 4321.14 136.926 4321.14 146.115C4321.14 155.303 4318.07 162.88 4311.93 168.844C4305.96 174.648 4298.38 177.549 4289.18 177.549Z" stroke="white" stroke-width="4" mask="url(#path-1-outside-1)"></path> <path d="M4688.08 5.86885L4633.84 175.131H4572.58L4545.22 84.6967L4516.41 175.131H4455.15L4400.92 5.86885H4459.75L4489.29 102.107L4520.53 5.86885H4573.07L4602.61 103.316L4633.84 5.86885H4688.08Z" stroke="white" stroke-width="4" mask="url(#path-1-outside-1)"></path> <path d="M4867.83 5.86885V175.131H4810.69V112.746H4757.9V175.131H4700.76V5.86885H4757.9V65.8361H4810.69V5.86885H4867.83Z" stroke="white" stroke-width="4" mask="url(#path-1-outside-1)"></path> <path d="M4984.22 179C4965.98 179 4949.59 175.212 4935.07 167.635C4920.54 160.059 4909.16 149.581 4900.93 136.201C4892.7 122.66 4888.58 107.426 4888.58 90.5C4888.58 73.5738 4892.7 58.4208 4900.93 45.041C4909.16 31.5 4920.54 20.9413 4935.07 13.3648C4949.59 5.78825 4965.98 2 4984.22 2C5002.46 2 5018.84 5.78825 5033.37 13.3648C5047.9 20.9413 5059.28 31.5 5067.51 45.041C5075.74 58.4208 5079.86 73.5738 5079.86 90.5C5079.86 107.426 5075.74 122.66 5067.51 136.201C5059.28 149.581 5047.9 160.059 5033.37 167.635C5018.84 175.212 5002.46 179 4984.22 179ZM4984.22 132.816C4991.32 132.816 4997.7 131.123 5003.35 127.738C5009.16 124.191 5013.76 119.275 5017.15 112.988C5020.54 106.54 5022.23 99.0437 5022.23 90.5C5022.23 81.9563 5020.54 74.541 5017.15 68.2541C5013.76 61.806 5009.16 56.8894 5003.35 53.5041C4997.7 49.9577 4991.32 48.1844 4984.22 48.1844C4977.12 48.1844 4970.66 49.9577 4964.85 53.5041C4959.2 56.8894 4954.68 61.806 4951.29 68.2541C4947.9 74.541 4946.21 81.9563 4946.21 90.5C4946.21 99.0437 4947.9 106.54 4951.29 112.988C4954.68 119.275 4959.2 124.191 4964.85 127.738C4970.66 131.123 4977.12 132.816 4984.22 132.816Z" stroke="white" stroke-width="4" mask="url(#path-1-outside-1)"></path> <path d="M5189.45 179C5171.21 179 5154.83 175.212 5140.3 167.635C5125.78 160.059 5114.4 149.581 5106.16 136.201C5097.93 122.66 5093.82 107.426 5093.82 90.5C5093.82 73.5738 5097.93 58.4208 5106.16 45.041C5114.4 31.5 5125.78 20.9413 5140.3 13.3648C5154.83 5.78825 5171.21 2 5189.45 2C5207.69 2 5224.08 5.78825 5238.61 13.3648C5253.13 20.9413 5264.51 31.5 5272.74 45.041C5280.98 58.4208 5285.09 73.5738 5285.09 90.5C5285.09 107.426 5280.98 122.66 5272.74 136.201C5264.51 149.581 5253.13 160.059 5238.61 167.635C5224.08 175.212 5207.69 179 5189.45 179ZM5189.45 132.816C5196.56 132.816 5202.93 131.123 5208.58 127.738C5214.39 124.191 5218.99 119.275 5222.38 112.988C5225.77 106.54 5227.47 99.0437 5227.47 90.5C5227.47 81.9563 5225.77 74.541 5222.38 68.2541C5218.99 61.806 5214.39 56.8894 5208.58 53.5041C5202.93 49.9577 5196.56 48.1844 5189.45 48.1844C5182.35 48.1844 5175.9 49.9577 5170.08 53.5041C5164.44 56.8894 5159.92 61.806 5156.53 68.2541C5153.14 74.541 5151.44 81.9563 5151.44 90.5C5151.44 99.0437 5153.14 106.54 5156.53 112.988C5159.92 119.275 5164.44 124.191 5170.08 127.738C5175.9 131.123 5182.35 132.816 5189.45 132.816Z" stroke="white" stroke-width="4" mask="url(#path-1-outside-1)"></path> <path d="M5369.03 179C5354.98 179 5341.26 177.469 5327.87 174.406C5314.63 171.182 5303.73 166.91 5295.18 161.59L5313.58 120C5321.65 124.675 5330.69 128.463 5340.7 131.365C5350.71 134.105 5360.31 135.475 5369.51 135.475C5377.42 135.475 5383.07 134.75 5386.46 133.299C5389.85 131.687 5391.54 129.35 5391.54 126.287C5391.54 122.74 5389.28 120.081 5384.76 118.307C5380.41 116.534 5373.14 114.6 5362.97 112.504C5349.9 109.764 5339 106.862 5330.29 103.799C5321.57 100.575 5313.98 95.4167 5307.53 88.3238C5301.07 81.0697 5297.84 71.3169 5297.84 59.0656C5297.84 48.4262 5300.83 38.7541 5306.8 30.0492C5312.77 21.3443 5321.65 14.4932 5333.43 9.49589C5345.38 4.49863 5359.83 2 5376.77 2C5388.4 2 5399.78 3.28962 5410.91 5.86885C5422.21 8.28688 5432.14 11.9139 5440.69 16.75L5423.5 58.0984C5406.88 49.7159 5391.14 45.5246 5376.29 45.5246C5361.6 45.5246 5354.26 49.071 5354.26 56.1639C5354.26 59.5492 5356.44 62.1284 5360.79 63.9016C5365.15 65.5137 5372.33 67.2869 5382.34 69.2213C5395.26 71.6394 5406.15 74.4604 5415.03 77.6844C5423.91 80.7473 5431.57 85.8251 5438.03 92.918C5444.65 100.011 5447.96 109.683 5447.96 121.934C5447.96 132.574 5444.97 142.246 5439 150.951C5433.03 159.495 5424.07 166.346 5412.12 171.504C5400.34 176.501 5385.97 179 5369.03 179Z" stroke="white" stroke-width="4" mask="url(#path-1-outside-1)"></path> <path d="M5632.03 5.86885V175.131H5574.88V112.746H5522.1V175.131H5464.96V5.86885H5522.1V65.8361H5574.88V5.86885H5632.03Z" stroke="white" stroke-width="4" mask="url(#path-1-outside-1)"></path> <path d="M5755.15 177.549C5745.95 177.549 5738.28 174.648 5732.15 168.844C5726.17 162.88 5723.19 155.303 5723.19 146.115C5723.19 136.926 5726.17 129.511 5732.15 123.869C5738.28 118.066 5745.95 115.164 5755.15 115.164C5764.35 115.164 5771.94 118.066 5777.91 123.869C5784.04 129.511 5787.11 136.926 5787.11 146.115C5787.11 155.303 5784.04 162.88 5777.91 168.844C5771.94 174.648 5764.35 177.549 5755.15 177.549Z" stroke="white" stroke-width="4" mask="url(#path-1-outside-1)"></path> <path d="M6154.05 5.86885L6099.81 175.131H6038.56L6011.2 84.6967L5982.38 175.131H5921.13L5866.89 5.86885H5925.73L5955.27 102.107L5986.5 5.86885H6039.04L6068.58 103.316L6099.81 5.86885H6154.05Z" stroke="white" stroke-width="4" mask="url(#path-1-outside-1)"></path> <path d="M6333.8 5.86885V175.131H6276.66V112.746H6223.88V175.131H6166.74V5.86885H6223.88V65.8361H6276.66V5.86885H6333.8Z" stroke="white" stroke-width="4" mask="url(#path-1-outside-1)"></path> <path d="M6450.19 179C6431.95 179 6415.57 175.212 6401.04 167.635C6386.51 160.059 6375.13 149.581 6366.9 136.201C6358.67 122.66 6354.55 107.426 6354.55 90.5C6354.55 73.5738 6358.67 58.4208 6366.9 45.041C6375.13 31.5 6386.51 20.9413 6401.04 13.3648C6415.57 5.78825 6431.95 2 6450.19 2C6468.43 2 6484.81 5.78825 6499.34 13.3648C6513.87 20.9413 6525.25 31.5 6533.48 45.041C6541.71 58.4208 6545.83 73.5738 6545.83 90.5C6545.83 107.426 6541.71 122.66 6533.48 136.201C6525.25 149.581 6513.87 160.059 6499.34 167.635C6484.81 175.212 6468.43 179 6450.19 179ZM6450.19 132.816C6457.29 132.816 6463.67 131.123 6469.32 127.738C6475.13 124.191 6479.73 119.275 6483.12 112.988C6486.51 106.54 6488.2 99.0437 6488.2 90.5C6488.2 81.9563 6486.51 74.541 6483.12 68.2541C6479.73 61.806 6475.13 56.8894 6469.32 53.5041C6463.67 49.9577 6457.29 48.1844 6450.19 48.1844C6443.09 48.1844 6436.63 49.9577 6430.82 53.5041C6425.17 56.8894 6420.65 61.806 6417.26 68.2541C6413.87 74.541 6412.18 81.9563 6412.18 90.5C6412.18 99.0437 6413.87 106.54 6417.26 112.988C6420.65 119.275 6425.17 124.191 6430.82 127.738C6436.63 131.123 6443.09 132.816 6450.19 132.816Z" stroke="white" stroke-width="4" mask="url(#path-1-outside-1)"></path> <path d="M6655.43 179C6637.19 179 6620.8 175.212 6606.28 167.635C6591.75 160.059 6580.37 149.581 6572.14 136.201C6563.91 122.66 6559.79 107.426 6559.79 90.5C6559.79 73.5738 6563.91 58.4208 6572.14 45.041C6580.37 31.5 6591.75 20.9413 6606.28 13.3648C6620.8 5.78825 6637.19 2 6655.43 2C6673.67 2 6690.05 5.78825 6704.58 13.3648C6719.11 20.9413 6730.49 31.5 6738.72 45.041C6746.95 58.4208 6751.07 73.5738 6751.07 90.5C6751.07 107.426 6746.95 122.66 6738.72 136.201C6730.49 149.581 6719.11 160.059 6704.58 167.635C6690.05 175.212 6673.67 179 6655.43 179ZM6655.43 132.816C6662.53 132.816 6668.91 131.123 6674.55 127.738C6680.37 124.191 6684.97 119.275 6688.36 112.988C6691.75 106.54 6693.44 99.0437 6693.44 90.5C6693.44 81.9563 6691.75 74.541 6688.36 68.2541C6684.97 61.806 6680.37 56.8894 6674.55 53.5041C6668.91 49.9577 6662.53 48.1844 6655.43 48.1844C6648.33 48.1844 6641.87 49.9577 6636.06 53.5041C6630.41 56.8894 6625.89 61.806 6622.5 68.2541C6619.11 74.541 6617.41 81.9563 6617.41 90.5C6617.41 99.0437 6619.11 106.54 6622.5 112.988C6625.89 119.275 6630.41 124.191 6636.06 127.738C6641.87 131.123 6648.33 132.816 6655.43 132.816Z" stroke="white" stroke-width="4" mask="url(#path-1-outside-1)"></path> <path d="M6835 179C6820.96 179 6807.24 177.469 6793.84 174.406C6780.6 171.182 6769.71 166.91 6761.15 161.59L6779.55 120C6787.62 124.675 6796.66 128.463 6806.67 131.365C6816.68 134.105 6826.28 135.475 6835.48 135.475C6843.39 135.475 6849.04 134.75 6852.43 133.299C6855.82 131.687 6857.52 129.35 6857.52 126.287C6857.52 122.74 6855.26 120.081 6850.74 118.307C6846.38 116.534 6839.11 114.6 6828.95 112.504C6815.87 109.764 6804.98 106.862 6796.26 103.799C6787.54 100.575 6779.96 95.4167 6773.5 88.3238C6767.04 81.0697 6763.81 71.3169 6763.81 59.0656C6763.81 48.4262 6766.8 38.7541 6772.77 30.0492C6778.75 21.3443 6787.62 14.4932 6799.41 9.49589C6811.35 4.49863 6825.8 2 6842.75 2C6854.37 2 6865.75 3.28962 6876.89 5.86885C6888.18 8.28688 6898.11 11.9139 6906.67 16.75L6889.48 58.0984C6872.85 49.7159 6857.11 45.5246 6842.26 45.5246C6827.57 45.5246 6820.23 49.071 6820.23 56.1639C6820.23 59.5492 6822.41 62.1284 6826.77 63.9016C6831.12 65.5137 6838.31 67.2869 6848.32 69.2213C6861.23 71.6394 6872.12 74.4604 6881 77.6844C6889.88 80.7473 6897.55 85.8251 6904 92.918C6910.62 100.011 6913.93 109.683 6913.93 121.934C6913.93 132.574 6910.94 142.246 6904.97 150.951C6899 159.495 6890.04 166.346 6878.1 171.504C6866.31 176.501 6851.95 179 6835 179Z" stroke="white" stroke-width="4" mask="url(#path-1-outside-1)"></path> <path d="M7098 5.86885V175.131H7040.86V112.746H6988.07V175.131H6930.93V5.86885H6988.07V65.8361H7040.86V5.86885H7098Z" stroke="white" stroke-width="4" mask="url(#path-1-outside-1)"></path> <path d="M7221.12 177.549C7211.92 177.549 7204.25 174.648 7198.12 168.844C7192.15 162.88 7189.16 155.303 7189.16 146.115C7189.16 136.926 7192.15 129.511 7198.12 123.869C7204.25 118.066 7211.92 115.164 7221.12 115.164C7230.32 115.164 7237.91 118.066 7243.88 123.869C7250.01 129.511 7253.08 136.926 7253.08 146.115C7253.08 155.303 7250.01 162.88 7243.88 168.844C7237.91 174.648 7230.32 177.549 7221.12 177.549Z" stroke="white" stroke-width="4" mask="url(#path-1-outside-1)"></path> <path d="M7620.02 5.86885L7565.79 175.131H7504.53L7477.17 84.6967L7448.36 175.131H7387.1L7332.86 5.86885H7391.7L7421.24 102.107L7452.47 5.86885H7505.01L7534.55 103.316L7565.79 5.86885H7620.02Z" stroke="white" stroke-width="4" mask="url(#path-1-outside-1)"></path> <path d="M7799.77 5.86885V175.131H7742.63V112.746H7689.85V175.131H7632.71V5.86885H7689.85V65.8361H7742.63V5.86885H7799.77Z" stroke="white" stroke-width="4" mask="url(#path-1-outside-1)"></path> <path d="M7916.16 179C7897.92 179 7881.54 175.212 7867.01 167.635C7852.49 160.059 7841.11 149.581 7832.87 136.201C7824.64 122.66 7820.53 107.426 7820.53 90.5C7820.53 73.5738 7824.64 58.4208 7832.87 45.041C7841.11 31.5 7852.49 20.9413 7867.01 13.3648C7881.54 5.78825 7897.92 2 7916.16 2C7934.4 2 7950.79 5.78825 7965.31 13.3648C7979.84 20.9413 7991.22 31.5 7999.45 45.041C8007.69 58.4208 8011.8 73.5738 8011.8 90.5C8011.8 107.426 8007.69 122.66 7999.45 136.201C7991.22 149.581 7979.84 160.059 7965.31 167.635C7950.79 175.212 7934.4 179 7916.16 179ZM7916.16 132.816C7923.27 132.816 7929.64 131.123 7935.29 127.738C7941.1 124.191 7945.7 119.275 7949.09 112.988C7952.48 106.54 7954.18 99.0437 7954.18 90.5C7954.18 81.9563 7952.48 74.541 7949.09 68.2541C7945.7 61.806 7941.1 56.8894 7935.29 53.5041C7929.64 49.9577 7923.27 48.1844 7916.16 48.1844C7909.06 48.1844 7902.61 49.9577 7896.79 53.5041C7891.14 56.8894 7886.63 61.806 7883.24 68.2541C7879.85 74.541 7878.15 81.9563 7878.15 90.5C7878.15 99.0437 7879.85 106.54 7883.24 112.988C7886.63 119.275 7891.14 124.191 7896.79 127.738C7902.61 131.123 7909.06 132.816 7916.16 132.816Z" stroke="white" stroke-width="4" mask="url(#path-1-outside-1)"></path> <path d="M8121.4 179C8103.16 179 8086.78 175.212 8072.25 167.635C8057.72 160.059 8046.34 149.581 8038.11 136.201C8029.88 122.66 8025.76 107.426 8025.76 90.5C8025.76 73.5738 8029.88 58.4208 8038.11 45.041C8046.34 31.5 8057.72 20.9413 8072.25 13.3648C8086.78 5.78825 8103.16 2 8121.4 2C8139.64 2 8156.02 5.78825 8170.55 13.3648C8185.08 20.9413 8196.46 31.5 8204.69 45.041C8212.92 58.4208 8217.04 73.5738 8217.04 90.5C8217.04 107.426 8212.92 122.66 8204.69 136.201C8196.46 149.581 8185.08 160.059 8170.55 167.635C8156.02 175.212 8139.64 179 8121.4 179ZM8121.4 132.816C8128.5 132.816 8134.88 131.123 8140.53 127.738C8146.34 124.191 8150.94 119.275 8154.33 112.988C8157.72 106.54 8159.41 99.0437 8159.41 90.5C8159.41 81.9563 8157.72 74.541 8154.33 68.2541C8150.94 61.806 8146.34 56.8894 8140.53 53.5041C8134.88 49.9577 8128.5 48.1844 8121.4 48.1844C8114.3 48.1844 8107.84 49.9577 8102.03 53.5041C8096.38 56.8894 8091.86 61.806 8088.47 68.2541C8085.08 74.541 8083.39 81.9563 8083.39 90.5C8083.39 99.0437 8085.08 106.54 8088.47 112.988C8091.86 119.275 8096.38 124.191 8102.03 127.738C8107.84 131.123 8114.3 132.816 8121.4 132.816Z" stroke="white" stroke-width="4" mask="url(#path-1-outside-1)"></path> <path d="M8300.97 179C8286.93 179 8273.21 177.469 8259.81 174.406C8246.57 171.182 8235.68 166.91 8227.12 161.59L8245.53 120C8253.6 124.675 8262.64 128.463 8272.64 131.365C8282.65 134.105 8292.26 135.475 8301.46 135.475C8309.37 135.475 8315.02 134.75 8318.4 133.299C8321.79 131.687 8323.49 129.35 8323.49 126.287C8323.49 122.74 8321.23 120.081 8316.71 118.307C8312.35 116.534 8305.09 114.6 8294.92 112.504C8281.84 109.764 8270.95 106.862 8262.23 103.799C8253.52 100.575 8245.93 95.4167 8239.47 88.3238C8233.02 81.0697 8229.79 71.3169 8229.79 59.0656C8229.79 48.4262 8232.77 38.7541 8238.75 30.0492C8244.72 21.3443 8253.6 14.4932 8265.38 9.49589C8277.32 4.49863 8291.77 2 8308.72 2C8320.34 2 8331.72 3.28962 8342.86 5.86885C8354.16 8.28688 8364.09 11.9139 8372.64 16.75L8355.45 58.0984C8338.82 49.7159 8323.09 45.5246 8308.24 45.5246C8293.55 45.5246 8286.2 49.071 8286.2 56.1639C8286.2 59.5492 8288.38 62.1284 8292.74 63.9016C8297.1 65.5137 8304.28 67.2869 8314.29 69.2213C8327.2 71.6394 8338.1 74.4604 8346.98 77.6844C8355.85 80.7473 8363.52 85.8251 8369.98 92.918C8376.59 100.011 8379.9 109.683 8379.9 121.934C8379.9 132.574 8376.92 142.246 8370.95 150.951C8364.97 159.495 8356.01 166.346 8344.07 171.504C8332.29 176.501 8317.92 179 8300.97 179Z" stroke="white" stroke-width="4" mask="url(#path-1-outside-1)"></path> <path d="M8563.97 5.86885V175.131H8506.83V112.746H8454.05V175.131H8396.91V5.86885H8454.05V65.8361H8506.83V5.86885H8563.97Z" stroke="white" stroke-width="4" mask="url(#path-1-outside-1)"></path> <path d="M8687.09 177.549C8677.89 177.549 8670.23 174.648 8664.09 168.844C8658.12 162.88 8655.13 155.303 8655.13 146.115C8655.13 136.926 8658.12 129.511 8664.09 123.869C8670.23 118.066 8677.89 115.164 8687.09 115.164C8696.29 115.164 8703.88 118.066 8709.85 123.869C8715.99 129.511 8719.05 136.926 8719.05 146.115C8719.05 155.303 8715.99 162.88 8709.85 168.844C8703.88 174.648 8696.29 177.549 8687.09 177.549Z" stroke="white" stroke-width="4" mask="url(#path-1-outside-1)"></path> <path d="M9085.99 5.86885L9031.76 175.131H8970.5L8943.14 84.6967L8914.33 175.131H8853.07L8798.84 5.86885H8857.67L8887.21 102.107L8918.45 5.86885H8970.99L9000.52 103.316L9031.76 5.86885H9085.99Z" stroke="white" stroke-width="4" mask="url(#path-1-outside-1)"></path> <path d="M9265.75 5.86885V175.131H9208.61V112.746H9155.82V175.131H9098.68V5.86885H9155.82V65.8361H9208.61V5.86885H9265.75Z" stroke="white" stroke-width="4" mask="url(#path-1-outside-1)"></path> <path d="M9382.14 179C9363.9 179 9347.51 175.212 9332.99 167.635C9318.46 160.059 9307.08 149.581 9298.85 136.201C9290.62 122.66 9286.5 107.426 9286.5 90.5C9286.5 73.5738 9290.62 58.4208 9298.85 45.041C9307.08 31.5 9318.46 20.9413 9332.99 13.3648C9347.51 5.78825 9363.9 2 9382.14 2C9400.38 2 9416.76 5.78825 9431.29 13.3648C9445.81 20.9413 9457.19 31.5 9465.43 45.041C9473.66 58.4208 9477.78 73.5738 9477.78 90.5C9477.78 107.426 9473.66 122.66 9465.43 136.201C9457.19 149.581 9445.81 160.059 9431.29 167.635C9416.76 175.212 9400.38 179 9382.14 179ZM9382.14 132.816C9389.24 132.816 9395.62 131.123 9401.26 127.738C9407.08 124.191 9411.68 119.275 9415.07 112.988C9418.46 106.54 9420.15 99.0437 9420.15 90.5C9420.15 81.9563 9418.46 74.541 9415.07 68.2541C9411.68 61.806 9407.08 56.8894 9401.26 53.5041C9395.62 49.9577 9389.24 48.1844 9382.14 48.1844C9375.04 48.1844 9368.58 49.9577 9362.77 53.5041C9357.12 56.8894 9352.6 61.806 9349.21 68.2541C9345.82 74.541 9344.12 81.9563 9344.12 90.5C9344.12 99.0437 9345.82 106.54 9349.21 112.988C9352.6 119.275 9357.12 124.191 9362.77 127.738C9368.58 131.123 9375.04 132.816 9382.14 132.816Z" stroke="white" stroke-width="4" mask="url(#path-1-outside-1)"></path> <path d="M9587.37 179C9569.13 179 9552.75 175.212 9538.22 167.635C9523.7 160.059 9512.32 149.581 9504.08 136.201C9495.85 122.66 9491.74 107.426 9491.74 90.5C9491.74 73.5738 9495.85 58.4208 9504.08 45.041C9512.32 31.5 9523.7 20.9413 9538.22 13.3648C9552.75 5.78825 9569.13 2 9587.37 2C9605.61 2 9622 5.78825 9636.52 13.3648C9651.05 20.9413 9662.43 31.5 9670.66 45.041C9678.9 58.4208 9683.01 73.5738 9683.01 90.5C9683.01 107.426 9678.9 122.66 9670.66 136.201C9662.43 149.581 9651.05 160.059 9636.52 167.635C9622 175.212 9605.61 179 9587.37 179ZM9587.37 132.816C9594.48 132.816 9600.85 131.123 9606.5 127.738C9612.31 124.191 9616.91 119.275 9620.3 112.988C9623.69 106.54 9625.39 99.0437 9625.39 90.5C9625.39 81.9563 9623.69 74.541 9620.3 68.2541C9616.91 61.806 9612.31 56.8894 9606.5 53.5041C9600.85 49.9577 9594.48 48.1844 9587.37 48.1844C9580.27 48.1844 9573.81 49.9577 9568 53.5041C9562.35 56.8894 9557.83 61.806 9554.45 68.2541C9551.06 74.541 9549.36 81.9563 9549.36 90.5C9549.36 99.0437 9551.06 106.54 9554.45 112.988C9557.83 119.275 9562.35 124.191 9568 127.738C9573.81 131.123 9580.27 132.816 9587.37 132.816Z" stroke="white" stroke-width="4" mask="url(#path-1-outside-1)"></path> <path d="M9766.94 179C9752.9 179 9739.18 177.469 9725.78 174.406C9712.55 171.182 9701.65 166.91 9693.1 161.59L9711.5 120C9719.57 124.675 9728.61 128.463 9738.62 131.365C9748.62 134.105 9758.23 135.475 9767.43 135.475C9775.34 135.475 9780.99 134.75 9784.38 133.299C9787.77 131.687 9789.46 129.35 9789.46 126.287C9789.46 122.74 9787.2 120.081 9782.68 118.307C9778.32 116.534 9771.06 114.6 9760.89 112.504C9747.82 109.764 9736.92 106.862 9728.21 103.799C9719.49 100.575 9711.9 95.4167 9705.45 88.3238C9698.99 81.0697 9695.76 71.3169 9695.76 59.0656C9695.76 48.4262 9698.75 38.7541 9704.72 30.0492C9710.69 21.3443 9719.57 14.4932 9731.35 9.49589C9743.3 4.49863 9757.74 2 9774.69 2C9786.31 2 9797.69 3.28962 9808.83 5.86885C9820.13 8.28688 9830.06 11.9139 9838.61 16.75L9821.42 58.0984C9804.8 49.7159 9789.06 45.5246 9774.21 45.5246C9759.52 45.5246 9752.18 49.071 9752.18 56.1639C9752.18 59.5492 9754.35 62.1284 9758.71 63.9016C9763.07 65.5137 9770.25 67.2869 9780.26 69.2213C9793.18 71.6394 9804.07 74.4604 9812.95 77.6844C9821.83 80.7473 9829.49 85.8251 9835.95 92.918C9842.57 100.011 9845.88 109.683 9845.88 121.934C9845.88 132.574 9842.89 142.246 9836.92 150.951C9830.95 159.495 9821.99 166.346 9810.04 171.504C9798.26 176.501 9783.89 179 9766.94 179Z" stroke="white" stroke-width="4" mask="url(#path-1-outside-1)"></path> <path d="M10029.9 5.86885V175.131H9972.8V112.746H9920.02V175.131H9862.88V5.86885H9920.02V65.8361H9972.8V5.86885H10029.9Z" stroke="white" stroke-width="4" mask="url(#path-1-outside-1)"></path> <path d="M10153.1 177.549C10143.9 177.549 10136.2 174.648 10130.1 168.844C10124.1 162.88 10121.1 155.303 10121.1 146.115C10121.1 136.926 10124.1 129.511 10130.1 123.869C10136.2 118.066 10143.9 115.164 10153.1 115.164C10162.3 115.164 10169.9 118.066 10175.8 123.869C10182 129.511 10185 136.926 10185 146.115C10185 155.303 10182 162.88 10175.8 168.844C10169.9 174.648 10162.3 177.549 10153.1 177.549Z" stroke="white" stroke-width="4" mask="url(#path-1-outside-1)"></path> <path d="M10552 5.86885L10497.7 175.131H10436.5L10409.1 84.6967L10380.3 175.131H10319L10264.8 5.86885H10323.6L10353.2 102.107L10384.4 5.86885H10437L10466.5 103.316L10497.7 5.86885H10552Z" stroke="white" stroke-width="4" mask="url(#path-1-outside-1)"></path> <path d="M10731.7 5.86885V175.131H10674.6V112.746H10621.8V175.131H10564.7V5.86885H10621.8V65.8361H10674.6V5.86885H10731.7Z" stroke="white" stroke-width="4" mask="url(#path-1-outside-1)"></path> <path d="M10848.1 179C10829.9 179 10813.5 175.212 10799 167.635C10784.4 160.059 10773.1 149.581 10764.8 136.201C10756.6 122.66 10752.5 107.426 10752.5 90.5C10752.5 73.5738 10756.6 58.4208 10764.8 45.041C10773.1 31.5 10784.4 20.9413 10799 13.3648C10813.5 5.78825 10829.9 2 10848.1 2C10866.3 2 10882.7 5.78825 10897.3 13.3648C10911.8 20.9413 10923.2 31.5 10931.4 45.041C10939.6 58.4208 10943.7 73.5738 10943.7 90.5C10943.7 107.426 10939.6 122.66 10931.4 136.201C10923.2 149.581 10911.8 160.059 10897.3 167.635C10882.7 175.212 10866.3 179 10848.1 179ZM10848.1 132.816C10855.2 132.816 10861.6 131.123 10867.2 127.738C10873 124.191 10877.6 119.275 10881 112.988C10884.4 106.54 10886.1 99.0437 10886.1 90.5C10886.1 81.9563 10884.4 74.541 10881 68.2541C10877.6 61.806 10873 56.8894 10867.2 53.5041C10861.6 49.9577 10855.2 48.1844 10848.1 48.1844C10841 48.1844 10834.6 49.9577 10828.7 53.5041C10823.1 56.8894 10818.6 61.806 10815.2 68.2541C10811.8 74.541 10810.1 81.9563 10810.1 90.5C10810.1 99.0437 10811.8 106.54 10815.2 112.988C10818.6 119.275 10823.1 124.191 10828.7 127.738C10834.6 131.123 10841 132.816 10848.1 132.816Z" stroke="white" stroke-width="4" mask="url(#path-1-outside-1)"></path> <path d="M11053.3 179C11035.1 179 11018.7 175.212 11004.2 167.635C10989.7 160.059 10978.3 149.581 10970.1 136.201C10961.8 122.66 10957.7 107.426 10957.7 90.5C10957.7 73.5738 10961.8 58.4208 10970.1 45.041C10978.3 31.5 10989.7 20.9413 11004.2 13.3648C11018.7 5.78825 11035.1 2 11053.3 2C11071.6 2 11088 5.78825 11102.5 13.3648C11117 20.9413 11128.4 31.5 11136.6 45.041C11144.9 58.4208 11149 73.5738 11149 90.5C11149 107.426 11144.9 122.66 11136.6 136.201C11128.4 149.581 11117 160.059 11102.5 167.635C11088 175.212 11071.6 179 11053.3 179ZM11053.3 132.816C11060.4 132.816 11066.8 131.123 11072.5 127.738C11078.3 124.191 11082.9 119.275 11086.3 112.988C11089.7 106.54 11091.4 99.0437 11091.4 90.5C11091.4 81.9563 11089.7 74.541 11086.3 68.2541C11082.9 61.806 11078.3 56.8894 11072.5 53.5041C11066.8 49.9577 11060.4 48.1844 11053.3 48.1844C11046.2 48.1844 11039.8 49.9577 11034 53.5041C11028.3 56.8894 11023.8 61.806 11020.4 68.2541C11017 74.541 11015.3 81.9563 11015.3 90.5C11015.3 99.0437 11017 106.54 11020.4 112.988C11023.8 119.275 11028.3 124.191 11034 127.738C11039.8 131.123 11046.2 132.816 11053.3 132.816Z" stroke="white" stroke-width="4" mask="url(#path-1-outside-1)"></path> <path d="M11232.9 179C11218.9 179 11205.2 177.469 11191.8 174.406C11178.5 171.182 11167.6 166.91 11159.1 161.59L11177.5 120C11185.5 124.675 11194.6 128.463 11204.6 131.365C11214.6 134.105 11224.2 135.475 11233.4 135.475C11241.3 135.475 11247 134.75 11250.4 133.299C11253.7 131.687 11255.4 129.35 11255.4 126.287C11255.4 122.74 11253.2 120.081 11248.7 118.307C11244.3 116.534 11237 114.6 11226.9 112.504C11213.8 109.764 11202.9 106.862 11194.2 103.799C11185.5 100.575 11177.9 95.4167 11171.4 88.3238C11165 81.0697 11161.7 71.3169 11161.7 59.0656C11161.7 48.4262 11164.7 38.7541 11170.7 30.0492C11176.7 21.3443 11185.5 14.4932 11197.3 9.49589C11209.3 4.49863 11223.7 2 11240.7 2C11252.3 2 11263.7 3.28962 11274.8 5.86885C11286.1 8.28688 11296 11.9139 11304.6 16.75L11287.4 58.0984C11270.8 49.7159 11255 45.5246 11240.2 45.5246C11225.5 45.5246 11218.1 49.071 11218.1 56.1639C11218.1 59.5492 11220.3 62.1284 11224.7 63.9016C11229 65.5137 11236.2 67.2869 11246.2 69.2213C11259.1 71.6394 11270 74.4604 11278.9 77.6844C11287.8 80.7473 11295.5 85.8251 11301.9 92.918C11308.5 100.011 11311.8 109.683 11311.8 121.934C11311.8 132.574 11308.9 142.246 11302.9 150.951C11296.9 159.495 11288 166.346 11276 171.504C11264.2 176.501 11249.9 179 11232.9 179Z" stroke="white" stroke-width="4" mask="url(#path-1-outside-1)"></path> <path d="M11495.9 5.86885V175.131H11438.8V112.746H11386V175.131H11328.9V5.86885H11386V65.8361H11438.8V5.86885H11495.9Z" stroke="white" stroke-width="4" mask="url(#path-1-outside-1)"></path> <path d="M11619 177.549C11609.8 177.549 11602.2 174.648 11596 168.844C11590.1 162.88 11587.1 155.303 11587.1 146.115C11587.1 136.926 11590.1 129.511 11596 123.869C11602.2 118.066 11609.8 115.164 11619 115.164C11628.2 115.164 11635.8 118.066 11641.8 123.869C11647.9 129.511 11651 136.926 11651 146.115C11651 155.303 11647.9 162.88 11641.8 168.844C11635.8 174.648 11628.2 177.549 11619 177.549Z" stroke="white" stroke-width="4" mask="url(#path-1-outside-1)"></path> </svg> 